<svg width="105" height="95" viewBox="0 0 105 95" fill="none" xmlns="http://www.w3.org/2000/svg">
<mask id="mask0_11_50" style="mask-type:luminance" maskUnits="userSpaceOnUse" x="12" y="9" width="78" height="77">
<path d="M12.8073 9.97913H89.8073V85.9791H12.8073V9.97913Z" fill="white"/>
</mask>
<g mask="url(#mask0_11_50)">
<path d="M51.0573 9.97913C29.9323 9.97913 12.8073 27.1041 12.8073 48.2291C12.8073 69.3541 29.9323 86.4791 51.0573 86.4791C72.1771 86.4791 89.3073 69.3541 89.3073 48.2291C89.3073 27.1041 72.1771 9.97913 51.0573 9.97913ZM69.2448 50.4843L56.4948 63.2343C55.875 63.8541 55.0573 64.1666 54.2448 64.1666C53.4271 64.1666 52.6094 63.8541 51.9896 63.2343C50.7448 61.9843 50.7448 59.9739 51.9896 58.7239L59.2969 51.4166H35.1198C33.3594 51.4166 31.9323 49.9948 31.9323 48.2291C31.9323 46.4687 33.3594 45.0416 35.1198 45.0416H59.2969L51.9896 37.7343C50.7448 36.4843 50.7448 34.4739 51.9896 33.2239C53.2344 31.9791 55.25 31.9791 56.4948 33.2239L69.2448 45.9739C70.4948 47.2239 70.4948 49.2343 69.2448 50.4843Z" fill="#112549"/>
</g>
</svg>
