<svg width="216" height="226" viewBox="0 0 216 226" fill="none" xmlns="http://www.w3.org/2000/svg">
<mask id="mask0_1_17" style="mask-type:luminance" maskUnits="userSpaceOnUse" x="4" y="10" width="211" height="216">
<path d="M4.66675 10.7778H214.111V225.654H4.66675V10.7778Z" fill="white"/>
</mask>
<g mask="url(#mask0_1_17)">
<path d="M213.56 173.093V187.46H177.933C162.614 208.397 136.383 221.919 91.4983 217.479C67.3078 215.083 46.6611 206.464 31.6242 192.601L42.0473 225.368H8.97659L22.5443 182.716C11.4397 168.356 5.15063 150.007 5.15063 128.36C5.15063 77.0669 50.9319 11.0881 102.225 11.0881C130.904 11.0881 157.879 19.5755 176.095 36.0187C176.926 33.6381 179.187 31.9215 181.85 31.9215C185.211 31.9215 187.948 34.658 187.948 38.0196C187.948 40.7735 186.112 43.1042 183.601 43.8594C193.501 55.895 199.382 71.1619 199.382 89.5256C199.382 101.761 199.187 116.027 197.475 130.517H208.475V142.23H195.737C195.205 145.162 194.597 148.083 193.901 150.977H210.862V163.573H190.211C189.072 166.819 187.79 169.999 186.349 173.093H213.56Z" fill="#F25044"/>
</g>
<mask id="mask1_1_17" style="mask-type:luminance" maskUnits="userSpaceOnUse" x="0" y="19" width="216" height="207">
<path d="M0.298096 19.7188H215.628V225.459H0.298096V19.7188Z" fill="white"/>
</mask>
<g mask="url(#mask1_1_17)">
<path d="M176.236 23.7942C177.169 21.6132 179.328 20.0811 181.85 20.0811C184.371 20.0811 186.531 21.6132 187.462 23.7942C187.347 26.7955 184.881 29.1979 181.85 29.1979C178.818 29.1979 176.353 26.7955 176.236 23.7942ZM148.458 54.263L144.076 49.8815V43.6857L148.458 39.3042H154.654L159.035 43.6857V49.8815L154.654 54.263H148.458ZM151.585 67.3988C151.585 67.3988 151.598 67.3988 151.618 67.401C151.21 67.3424 150.932 67.299 150.932 67.299L149.009 71.9431C147.852 72.0863 146.207 71.3789 146.207 71.3789C146.207 71.3789 145.602 71.1944 144.973 70.7191L144.97 70.717C144.495 70.3589 144.007 69.8359 143.751 69.0959L145.611 65.2374C145.611 65.2374 146.134 60.5477 146.092 60.1636C146.053 59.7795 149.248 58.3993 149.762 58.6445C149.944 58.7313 150.298 58.9743 150.7 59.2912C151.72 58.9418 152.818 58.5859 153.558 58.6575C154.931 58.7921 156.164 58.3819 156.325 58.9809C156.485 59.5755 156.811 60.0659 157.154 60.6996C157.499 61.3333 156.854 61.9561 156.665 62.4357C156.472 62.9131 157.186 63.575 157.286 63.7812C157.384 63.9874 156.659 65.2569 156.19 65.7235C155.717 66.1922 156.166 67.4618 155.326 67.6679C155.22 67.694 155.072 67.707 154.894 67.7113L152.655 68.4275C152.585 68.4492 152.514 68.4557 152.442 68.4405L151.45 68.2582C151.227 68.217 151.073 68.0086 151.099 67.7829C151.125 67.5399 151.342 67.3684 151.585 67.3988ZM9.78594 222.829L11.3159 218.011H39.7056L41.2378 222.829H9.78594ZM29.8966 187.164H21.1271L22.6592 182.351H28.3645L27.8719 180.804C27.1384 178.503 23.8832 178.503 23.1497 180.804L19.8228 191.266H31.2009L32.7308 196.082H18.2907L16.9886 200.181H34.0351L35.565 204.996H15.4565L14.1523 209.096H36.8714L38.4014 213.911H12.6223L9.78594 222.829H0.298096V225.368H50.7256V222.829H41.2378L29.8966 187.164ZM210.682 186.895H203.13L208.857 173.924H212.117L212.998 181.461L210.682 186.895ZM195.437 186.895H187.887L194.009 173.924H201.364L195.437 186.895ZM180.194 186.895H172.644L179.161 173.924H186.516L180.194 186.895ZM164.949 186.895H157.399L164.313 173.924H171.667L164.949 186.895ZM149.703 186.895H142.154L149.465 173.924H156.819L149.703 186.895ZM134.46 186.895H126.911L134.619 173.924H141.971L134.46 186.895ZM111.665 186.895L119.769 173.924H127.123L119.217 186.895H111.665ZM100.671 186.895L101.596 178.998L104.92 173.924H112.277L103.972 186.895H100.671ZM213.807 172.023H100.498L98.5359 188.794H215.771L213.807 172.023ZM104.289 156.001L107.212 151.715H114.228L106.602 163.158H103.451L104.289 156.001ZM128.399 151.715L121.121 163.158H113.929L121.381 151.715H128.399ZM135.55 151.715H142.568L135.639 163.158H128.447L135.55 151.715ZM149.719 151.715H156.737L150.159 163.158H142.967L149.719 151.715ZM163.888 151.715H170.906L164.677 163.158H157.486L163.888 151.715ZM178.056 151.715H185.075L179.196 163.158H172.004L178.056 151.715ZM192.227 151.715H199.243L193.714 163.158H186.522L192.227 151.715ZM206.396 151.715H209.515L210.315 158.556L208.232 163.158H201.04L206.396 151.715ZM101.314 165.057H212.989L211.207 149.814H103.098L101.314 165.057ZM106.739 135.064L109.295 131.455H116.008L108.996 141.568H105.977L106.739 135.064ZM129.556 131.455L122.857 141.568H115.99L122.846 131.455H129.556ZM136.396 131.455H143.108L136.715 141.568H129.849L136.396 131.455ZM149.944 131.455H156.657L150.574 141.568H143.71L149.944 131.455ZM163.495 131.455H170.207L164.434 141.568H157.568L163.495 131.455ZM177.045 131.455H183.757L178.293 141.568H171.427L177.045 131.455ZM190.595 131.455H197.305L192.151 141.568H185.287L190.595 131.455ZM204.146 131.455H207.143L207.872 137.681L206.01 141.568H199.146L204.146 131.455ZM103.842 143.469H210.463L208.833 129.554H105.47L103.842 143.469ZM177.761 82.3706L169.469 90.654H159.801L168.093 82.3706L159.801 74.0872H169.469L177.761 82.3706ZM167.423 82.3706L158.653 91.1293H169.667L178.434 82.3706L169.667 73.6119H158.653L167.423 82.3706ZM176.272 74.0872H185.943L194.235 82.3706L185.943 90.654H176.272L184.567 82.3706L176.272 74.0872ZM175.127 91.1293H186.138L194.907 82.3706L186.138 73.6119H175.127L183.894 82.3706L175.127 91.1293ZM198.929 80.9318L191.598 73.6119H197.798C197.831 73.7704 197.857 73.9288 197.889 74.0872H192.746L198.855 80.1853C198.883 80.4327 198.903 80.6844 198.929 80.9318ZM191.598 91.1293L199.163 83.575C199.176 83.7834 199.194 83.9917 199.207 84.2L192.746 90.654H199.382C199.382 90.8125 199.38 90.9687 199.38 91.1293H191.598ZM76.0099 21.5568H85.6779L93.97 29.8402L85.6779 38.1237H76.0099L84.302 29.8402L76.0099 21.5568ZM85.8732 38.5989L94.6427 29.8402L85.8732 21.0815H74.8619L83.6293 29.8402L74.8619 38.5989H85.8732ZM92.4834 21.5568H102.149L110.444 29.8402L102.149 38.1237H100.457C99.4778 37.7222 98.3819 37.3923 97.2469 37.2209C95.5477 36.9605 93.9157 37.3012 92.5377 38.0694L100.776 29.8402L92.4834 21.5568ZM91.3354 38.5989H91.7217C89.8532 39.9791 88.6141 42.2122 88.6141 44.7469L88.69 47.4053C88.69 47.4053 88.4817 47.8133 87.8806 48.5468C87.3076 49.2456 86.8063 49.5299 86.9366 49.7903C87.1991 50.3177 88.7899 50.8927 88.7899 50.8927C88.7899 50.8927 88.2582 51.5351 88.4144 51.8802C88.575 52.223 88.8354 52.4878 88.8354 52.4878C88.8354 52.4878 88.4144 53.2083 88.5208 53.3645C88.6271 53.5186 88.8832 54.1545 88.8832 54.1566L88.9027 54.8055C88.9027 54.8055 88.588 56.5373 90.4782 56.5373C91.0945 56.5373 92.3554 56.483 93.8484 56.3376C93.8484 56.3376 95.4283 56.24 95.7929 57.21C96.1575 58.1822 96.5264 59.8229 96.5264 59.8229L101.073 64.148L105.884 59.2673C105.884 59.2673 104.226 54.7686 103.555 52.1493C104.99 48.4101 105.331 40.9687 102.483 39.1566C102.186 38.9657 101.854 38.779 101.498 38.5989H102.347L111.114 29.8402L102.347 21.0815H91.3354L100.103 29.8402L91.3354 38.5989ZM108.957 21.5568H118.623L126.915 29.8402L118.623 38.1237H108.957L117.247 29.8402L108.957 21.5568ZM107.807 38.5989H118.82L127.588 29.8402L118.82 21.0815H107.807L116.576 29.8402L107.807 38.5989ZM125.428 21.5568H135.094L143.388 29.8402L135.094 38.1237H125.428L133.723 29.8402L125.428 21.5568ZM124.28 38.5989H135.292L144.059 29.8402L135.292 21.0815H124.28L133.048 29.8402L124.28 38.5989ZM101.809 103.111H108.423L99.9357 118.885H93.3233L101.809 103.111ZM92.7829 118.885H86.2269L94.7122 103.111H101.27L92.7829 118.885ZM79.072 118.885L87.5594 103.111H94.1718L85.6866 118.885H79.072ZM78.5316 118.885H71.9756L80.463 103.111H87.019L78.5316 118.885ZM64.8228 118.885L73.3081 103.111H79.9227L71.4374 118.885H64.8228ZM64.2825 118.885H57.7265L66.2139 103.111H72.7699L64.2825 118.885ZM50.5737 118.885L59.0589 103.111H65.6757L57.1861 118.885H50.5737ZM50.0333 118.885H43.4774L51.9648 103.111H58.5186L50.0333 118.885ZM43.3168 103.111H51.4266L43.3168 118.18V103.111ZM108.963 103.111H115.519L107.032 118.885H100.476L108.963 103.111ZM122.672 103.111L114.187 118.885H107.572L116.06 103.111H122.672ZM123.213 103.111H129.769L121.281 118.885H114.725L123.213 103.111ZM136.924 103.111L128.436 118.885H121.822L130.309 103.111H136.924ZM137.462 103.111H144.02L135.53 118.885H128.976L137.462 103.111ZM151.173 103.111L142.685 118.885H136.071L144.558 103.111H151.173ZM151.713 103.111H158.267L149.779 118.885H143.223L151.713 103.111ZM165.422 103.111L156.934 118.885H150.32L158.807 103.111H165.422ZM165.962 103.111H172.516L164.031 118.885H157.475L165.962 103.111ZM179.671 103.111L171.184 118.885H164.569L173.056 103.111H179.671ZM180.211 103.111H186.767L178.28 118.885H171.724L180.211 103.111ZM193.92 103.111L185.435 118.885H178.82L187.305 103.111H193.92ZM107.316 119.361H198.521C198.532 119.2 198.545 119.042 198.555 118.885H193.069L199.126 107.627C199.139 107.269 199.15 106.915 199.161 106.561L192.529 118.885H185.973L194.46 103.111H199.252C199.254 102.95 199.259 102.794 199.263 102.635H43.3168V40.2157C43.1562 40.3806 43.0021 40.5542 42.8415 40.7213V119.061L42.6809 119.361H42.8415V201.305C43.0021 201.409 43.1562 201.516 43.3168 201.618V119.361H107.316ZM16.4548 103.111H23.0086L14.5212 118.885H7.9652L16.4548 103.111ZM30.1635 103.111L21.6761 118.885H15.0616L23.5468 103.111H30.1635ZM36.5134 103.111V104.493L28.7703 118.885H22.2143L30.7039 103.111H36.5134ZM36.5134 118.885H29.3107L36.5134 105.498V118.885ZM14.8055 119.361H36.5134V196.769C36.6718 196.898 36.8302 197.019 36.9886 197.143V56.1119L37.5312 53.3841C37.5312 53.3841 37.312 53.2908 36.9886 53.1519V47.3424C36.8302 47.5334 36.6696 47.7243 36.5134 47.9175V52.9479C35.769 52.6289 34.8207 52.2144 34.4214 52.0147C33.957 51.7825 32.5225 47.8329 31.8931 44.6818C31.5633 43.039 32.0299 41.3485 31.7412 41.0816C31.1835 40.5716 30.6605 41.891 30.3849 43.3146C30.22 42.0755 30.1462 40.7083 29.6709 41.1966C28.9418 41.9474 29.3736 44.3216 29.4778 44.7751C29.5364 45.0204 29.8337 46.3072 30.0963 47.4401C30.0333 47.3815 29.9704 47.3207 29.9075 47.2664C29.1306 46.598 28.6184 43 28.0542 43.881C27.4899 44.7643 27.9912 47.3945 28.1866 47.8177C28.3537 48.1844 29.7925 51.6545 30.1787 52.5876C29.1913 54.7013 25.1809 57.2361 25.5346 58.3624C25.8862 59.4908 29.1306 57.5507 30.5412 57.3576C31.9517 57.1645 33.9982 57.8632 34.914 57.5855C35.5585 57.388 36.19 57.3576 36.5134 57.3554V102.635H8.58586C8.54462 102.794 8.50556 102.95 8.46433 103.111H8.75947L8.21476 104.12C8.07153 104.717 7.9283 105.309 7.79593 105.906L9.29983 103.111H15.9144L7.427 118.885H5.64966C5.63447 119.042 5.62145 119.2 5.60626 119.361H14.8055Z" fill="#F9D291"/>
</g>
<mask id="mask2_1_17" style="mask-type:luminance" maskUnits="userSpaceOnUse" x="34" y="32" width="182" height="194">
<path d="M34.6667 32.5486H215.066V225.465H34.6667V32.5486Z" fill="white"/>
</mask>
<g mask="url(#mask2_1_17)">
<path d="M150.079 69.3997C150.073 69.3997 150.07 69.3954 150.066 69.391L149.009 71.9431C147.852 72.0864 146.208 71.3789 146.208 71.3789C146.208 71.3789 145.602 71.1944 144.973 70.7192L144.971 70.717C144.495 70.3589 144.007 69.8359 143.751 69.0959L144.984 66.5395C144.174 66.3941 143.336 66.7673 142.918 67.5139L140.615 71.6133C140.615 71.6133 126.251 63.2799 122.019 61.5872C118.102 60.0204 112.755 59.6645 111.976 59.6211C111.741 59.5864 111.503 59.5516 111.253 59.5234L111.878 71.7326V74.493C111.878 74.493 111.932 74.5299 112.023 74.5885L112.332 80.6476L115.576 81.0577C115.626 81.7239 115.665 82.3945 115.702 83.0673C116.049 81.2248 116.379 79.352 116.672 77.5139C122.395 81.023 131.748 86.4418 136.197 87.2621C145.719 89.0221 148.469 87.8264 150.587 84.8641C151.672 83.3429 152.516 80.8515 153.085 78.7812C154.027 75.3372 152.866 71.635 150.079 69.3997ZM209.552 188.794H204.641L209.391 225.465H214.879L209.552 188.794ZM202.961 143.469H198.768L199.591 149.814H203.883L202.961 143.469ZM206.099 165.057H201.566L202.468 172.023H207.112L206.099 165.057ZM107.201 172.023H111.846L112.75 165.057H108.217L107.201 172.023ZM99.4237 225.465H104.914L109.671 188.794H104.762L99.4237 225.465ZM82.8915 42.4596L104.667 44.0221C104.667 44.0221 105.407 35.9818 104.667 35.4522C103.927 34.9227 100.012 32.7005 98.2127 32.7005C96.4159 32.7005 89.9597 34.2869 89.9597 34.2869L88.5838 42.1189L82.1298 41.6415C82.1298 42.0712 82.4619 42.4292 82.8915 42.4596ZM127.019 158.08C126.155 147.922 126.132 114.756 110.685 99.4627C110.685 99.4627 94.339 90.7127 92.1212 98.7552L133.417 220.079H143.842C143.842 220.079 145.802 203.15 140.096 188.762C134.393 174.372 127.885 168.237 127.019 158.08ZM37.5009 53.3646L34.7231 67.3077C34.7231 67.3077 70.7692 77.3055 73.4471 77.3229C76.7848 77.3424 81.8933 77.3468 86.583 77.3424C86.5526 78.5013 86.5526 79.2196 86.5526 79.2196L89.9597 79.0677L91.8304 60.3915L91.8347 60.3285C85.8364 60.7474 76.2097 61.3811 72.8113 61.3811C67.7331 61.3811 37.5009 53.3646 37.5009 53.3646ZM105.884 59.2673L105.88 59.2587C106.598 59.2543 107.308 59.2608 108 59.2847L108.922 80.3568L93.6685 79.2196L94.8989 60.003C95.4176 59.9423 95.9666 59.8837 96.5287 59.8251L101.073 64.148L105.884 59.2673Z" fill="#30526A"/>
</g>
<path d="M116.153 93.1215C116.153 93.1519 116.153 93.1844 116.155 93.2127C116.155 93.1844 116.153 93.1519 116.153 93.1215ZM85.9991 82.8437C86.0729 82.2665 85.9839 82.911 85.8798 83.8138C85.7192 85.22 85.576 86.4744 85.4457 87.605L116.001 89.5429C116.016 89.8858 116.03 90.2157 116.045 90.5347C115.973 88.9136 115.891 87.0017 115.786 84.7339L85.9991 82.8437ZM85.0378 91.24C84.7274 94.0199 84.5647 95.5564 84.48 96.3789C84.4214 96.9713 84.6558 97.5681 85.1311 97.924C86.2205 98.74 87.5269 99.2304 88.8898 99.3281L100.752 100.168L105.906 100.385C108.664 100.5 111.6 100.524 114.263 99.8251C114.704 99.71 115.116 99.5104 115.498 99.263L115.522 99.2478C116.036 98.9158 116.34 98.3407 116.32 97.7287C116.296 96.9062 116.247 95.4848 116.155 93.2127L85.0378 91.24ZM116.153 93.1215C116.142 92.9088 116.136 92.6918 116.127 92.4661C116.136 92.6918 116.142 92.911 116.153 93.1215ZM187.462 23.7942C186.531 21.6132 184.372 20.0811 181.85 20.0811C179.328 20.0811 177.169 21.6132 176.236 23.7942C176.353 26.7955 178.818 29.1979 181.85 29.1979C184.882 29.1979 187.347 26.7955 187.462 23.7942ZM187.462 38.2365C186.531 36.0555 184.372 34.5256 181.85 34.5256C179.328 34.5256 177.169 36.0555 176.236 38.2365C176.353 41.2422 178.818 43.6423 181.85 43.6423C184.882 43.6423 187.347 41.2422 187.462 38.2365ZM190.368 13.8615V60.1419H173.184V13.8615H190.368ZM91.8563 60.0616L91.8173 60.0638C91.8173 60.0638 88.2496 68.2322 86.5525 79.2196L90.2352 79.454L91.8563 60.0616ZM115.576 81.0577C114.675 69.6276 111.388 59.2283 111.388 59.2283L111.032 59.1979L112.132 80.8407L115.576 81.0577ZM109.085 80.6475L93.2539 79.6449L94.9162 59.7947L95.2483 59.7686C94.9488 64.4475 100.697 71.8693 100.697 71.8693C100.697 71.8693 107.961 63.7009 107.976 58.9245H107.983L109.085 80.6475Z" fill="#F9FE59"/>
<mask id="mask3_1_17" style="mask-type:luminance" maskUnits="userSpaceOnUse" x="55" y="0" width="143" height="226">
<path d="M55.4153 0.237427H197.444V225.465H55.4153V0.237427Z" fill="white"/>
</mask>
<g mask="url(#mask3_1_17)">
<path d="M144.168 221.349C142.271 220.926 142.058 220.079 142.058 220.079H134.934L135.78 225.368H147.49C147.49 225.368 146.066 221.772 144.168 221.349ZM88.8898 99.3284C88.5404 99.3045 88.1931 99.2524 87.8503 99.1765C87.7721 99.2676 87.6962 99.3566 87.6181 99.4564L65.8255 220.079H66.6003C64.7643 222.056 65.0486 220.936 61.648 221.136C58.0499 221.349 55.6172 225.368 55.6172 225.368H72.9371L73.9918 220.079H76.2509C76.2509 220.079 86.7587 203.15 88.3212 188.762C89.8858 174.372 86.4766 168.237 90.7409 158.081C93.2713 152.052 97.9392 139.539 101.464 126.206L92.401 99.5758L88.8898 99.3284ZM99.5343 99.7407C99.6862 97.4252 99.8273 95.1097 99.9444 92.7919L100.281 85.841L100.554 78.8857C100.637 76.568 100.702 74.2481 100.754 71.9282C100.754 71.8783 100.717 71.8371 100.669 71.8349C100.619 71.8327 100.576 71.8696 100.572 71.9196C100.418 74.2351 100.276 76.5506 100.153 78.8683L99.8077 85.8193L99.5256 92.7746C99.441 95.0923 99.3737 97.41 99.3194 99.7299C99.3173 99.7885 99.3628 99.8362 99.4193 99.8406C99.48 99.8449 99.5321 99.7993 99.5343 99.7407ZM188.046 23.7707C188.069 22.9591 187.933 22.1387 187.638 21.3727C187.34 20.6066 186.882 19.9035 186.309 19.3089C185.161 18.1153 183.51 17.4317 181.85 17.4252C180.187 17.4274 178.536 18.111 177.384 19.3024C176.809 19.897 176.351 20.6023 176.049 21.3662C175.754 22.1322 175.615 22.9547 175.635 23.7707C175.637 23.8249 175.682 23.8727 175.741 23.8727C175.799 23.8748 175.849 23.8293 175.849 23.7707C175.897 22.1952 176.572 20.6761 177.681 19.5997C178.786 18.5168 180.309 17.8874 181.85 17.8983C183.391 17.8831 184.916 18.5124 186.025 19.591C187.136 20.6674 187.818 22.1908 187.865 23.7707C187.865 23.8163 187.905 23.8553 187.954 23.8575C188.004 23.8597 188.046 23.8206 188.046 23.7707ZM181.85 29.1982C184.882 29.1982 187.347 26.7959 187.462 23.7946C186.531 21.6136 184.372 20.0814 181.85 20.0814C179.328 20.0814 177.169 21.6136 176.236 23.7946C176.353 26.7959 178.818 29.1982 181.85 29.1982ZM188.046 38.213C188.069 37.4013 187.933 36.581 187.638 35.815C187.34 35.0511 186.882 34.3479 186.309 33.7533C185.161 32.5619 183.51 31.8762 181.85 31.8696C180.187 31.8718 178.536 32.5554 177.384 33.7468C176.809 34.3393 176.351 35.0446 176.049 35.8106C175.754 36.5788 175.615 37.4013 175.635 38.213C175.637 38.2694 175.682 38.3171 175.741 38.3171C175.799 38.3193 175.849 38.2737 175.849 38.213C175.897 36.6396 176.572 35.1205 177.681 34.0441C178.786 32.9612 180.309 32.3319 181.85 32.3449C183.391 32.3254 184.916 32.9569 186.025 34.0376C187.136 35.114 187.818 36.6353 187.865 38.213C187.865 38.2607 187.905 38.2998 187.954 38.2998C188.004 38.3019 188.046 38.2629 188.046 38.213ZM181.85 43.6426C184.882 43.6426 187.347 41.2425 187.462 38.2368C186.531 36.0558 184.372 34.5259 181.85 34.5259C179.328 34.5259 177.169 36.0558 176.236 38.2368C176.353 41.2425 178.818 43.6426 181.85 43.6426ZM188.046 52.6574C188.069 51.8458 187.933 51.0255 187.638 50.2594C187.34 49.4955 186.882 48.7902 186.309 48.1999C185.161 47.0064 183.51 46.3206 181.85 46.3163C180.187 46.3163 178.536 46.9998 177.384 48.1913C176.809 48.7859 176.351 49.489 176.049 50.2551C175.754 51.0211 175.615 51.8436 175.635 52.6574C175.637 52.7138 175.682 52.7616 175.741 52.7637C175.799 52.7659 175.849 52.716 175.849 52.6574C175.897 51.0862 176.572 49.565 177.681 48.4886C178.786 47.4057 180.309 46.7763 181.85 46.7893C183.391 46.772 184.916 47.4013 186.025 48.4821C187.136 49.5584 187.818 51.0819 187.865 52.6574C187.865 52.7051 187.905 52.7442 187.954 52.7464C188.004 52.7485 188.046 52.7073 188.046 52.6574ZM187.462 52.6813C186.531 50.5003 184.372 48.9703 181.85 48.9703C179.328 48.9703 177.169 50.5003 176.236 52.6813C176.353 55.6869 178.818 58.0871 181.85 58.0871C184.882 58.0871 187.347 55.6869 187.462 52.6813ZM190.476 62.9677H173.224C172.236 62.9677 171.435 62.1669 171.435 61.1795V12.3058C171.435 11.3184 172.236 10.5198 173.224 10.5198H179.664V0.239868H184.035V10.5198H190.476C191.464 10.5198 192.264 11.3184 192.264 12.3058V61.1795C192.264 62.1669 191.464 62.9677 190.476 62.9677ZM87.0951 62.5033C86.7956 61.8805 86.4397 61.2837 86.0143 60.7433C85.9883 60.7064 85.9384 60.6956 85.8993 60.7173C85.8537 60.7433 85.8364 60.7954 85.8602 60.841C86.1836 61.4378 86.4787 62.0432 86.7283 62.6661C86.9779 63.2889 87.197 63.9226 87.3533 64.5736C87.5291 65.2182 87.6463 65.8801 87.7287 66.5441C87.8112 67.2082 87.8459 67.8809 87.8546 68.558C87.8546 68.6101 87.8915 68.6557 87.9457 68.6643C88.0043 68.673 88.0586 68.6318 88.0673 68.5732C88.1736 67.8918 88.191 67.1952 88.1476 66.5051C88.102 65.8128 87.9783 65.127 87.8134 64.4543C87.6267 63.7859 87.3989 63.1283 87.0951 62.5033ZM118.645 61.2642C118.679 61.2294 118.688 61.173 118.662 61.1296C118.629 61.0775 118.564 61.0623 118.512 61.0927C118.095 61.3445 117.72 61.6656 117.384 62.0215C117.041 62.3731 116.75 62.7724 116.498 63.1934C116.249 63.6188 116.04 64.0658 115.895 64.5367C115.75 65.0011 115.65 65.4851 115.626 65.9712C115.626 66.0124 115.652 66.0515 115.693 66.0645C115.741 66.0775 115.793 66.0493 115.806 66.0016C115.941 65.5459 116.088 65.1031 116.273 64.6735C116.459 64.2481 116.663 63.8336 116.904 63.4365C117.141 63.0372 117.41 62.6617 117.698 62.2972C117.987 61.9347 118.308 61.5962 118.645 61.2642ZM116.251 74.6952C116.181 74.2156 116.127 73.7338 116.071 73.252L115.921 71.798C115.917 71.7481 115.878 71.7069 115.826 71.7004C115.767 71.6939 115.713 71.7373 115.706 71.798C115.65 72.2885 115.639 72.7854 115.652 73.2824C115.663 73.7772 115.713 74.272 115.78 74.7603C115.856 75.2507 115.947 75.739 116.077 76.2186C116.205 76.696 116.355 77.1713 116.55 77.627C116.566 77.6639 116.607 77.6878 116.65 77.6813C116.7 77.6704 116.733 77.6248 116.724 77.5749L116.47 76.1318C116.394 75.6544 116.314 75.1748 116.251 74.6952ZM138.519 218.287C139.437 218.278 140.355 218.278 141.275 218.259C142.193 218.239 143.111 218.213 144.031 218.157C144.083 218.152 144.126 218.111 144.131 218.055C144.135 217.996 144.089 217.944 144.031 217.942C143.111 217.883 142.193 217.859 141.275 217.838C140.355 217.818 139.437 217.82 138.519 217.811C137.599 217.824 136.681 217.824 135.76 217.848C134.842 217.87 133.924 217.9 133.004 217.957C132.959 217.961 132.922 217.996 132.92 218.044C132.915 218.094 132.954 218.137 133.004 218.139C133.924 218.198 134.842 218.226 135.76 218.25C136.681 218.274 137.599 218.272 138.519 218.287ZM118.026 171.785C117.948 171.746 117.865 171.711 117.766 171.7C117.753 171.698 117.737 171.698 117.724 171.703C117.666 171.718 117.629 171.776 117.644 171.837C117.67 171.937 117.716 172.013 117.763 172.084C117.807 172.16 117.87 172.221 117.928 172.28C117.991 172.334 118.059 172.388 118.137 172.427C118.215 172.466 118.293 172.503 118.395 172.514C118.41 172.516 118.428 172.516 118.445 172.512C118.512 172.495 118.553 172.423 118.536 172.354C118.51 172.254 118.462 172.18 118.412 172.108C118.365 172.037 118.304 171.98 118.241 171.922C118.176 171.872 118.106 171.82 118.026 171.785ZM123.981 163.988C123.931 163.983 123.888 164.02 123.883 164.07C123.814 164.83 123.731 165.585 123.612 166.334C123.49 167.082 123.352 167.827 123.156 168.558C122.985 169.294 122.759 170.019 122.514 170.735C122.269 171.451 121.987 172.156 121.691 172.859C121.672 172.907 121.691 172.966 121.737 172.994C121.787 173.024 121.854 173.007 121.885 172.957C122.284 172.297 122.618 171.596 122.909 170.88C123.195 170.162 123.423 169.422 123.616 168.673C123.79 167.916 123.935 167.156 124.009 166.386C124.085 165.617 124.113 164.843 124.066 164.072C124.061 164.029 124.026 163.992 123.981 163.988ZM150.706 72.1539C150.795 72.2472 150.884 72.3427 150.999 72.423C151.023 72.4382 151.053 72.4491 151.086 72.4447C151.149 72.4339 151.192 72.3753 151.184 72.3102C151.162 72.1691 151.112 72.0432 151.056 71.9196C151.001 71.798 150.928 71.6852 150.849 71.5767C150.767 71.4703 150.682 71.3662 150.578 71.2794C150.478 71.1882 150.372 71.1057 150.242 71.0406C150.22 71.0298 150.194 71.0276 150.17 71.0363C150.118 71.0515 150.088 71.1057 150.103 71.1578C150.144 71.2967 150.203 71.4117 150.266 71.5268C150.322 71.6439 150.394 71.7481 150.467 71.8544C150.541 71.9564 150.615 72.0606 150.706 72.1539ZM151.707 73.7598H151.704C151.392 74.0159 150.945 74.0202 150.522 73.9747C150.085 73.9334 149.654 73.8575 149.233 73.7425C148.391 73.5189 147.585 73.163 146.867 72.6769C146.136 72.2082 145.507 71.5897 144.975 70.8996C144.445 70.2051 144.033 69.4196 143.738 68.584C143.723 68.5406 143.677 68.5146 143.632 68.5255C143.584 68.5363 143.551 68.584 143.562 68.6318C143.751 69.5215 144.131 70.3744 144.649 71.1318C145.17 71.8913 145.841 72.5489 146.602 73.0697C147.375 73.5754 148.232 73.9551 149.135 74.1505C149.584 74.2459 150.042 74.3045 150.5 74.3197C150.945 74.3241 151.49 74.298 151.854 73.9161C151.891 73.877 151.893 73.8163 151.859 73.775C151.822 73.7273 151.752 73.7208 151.707 73.7598ZM134.172 74.2525C134.22 74.2807 134.28 74.2655 134.309 74.2199L134.508 73.9031C134.578 73.8054 134.636 73.7077 134.706 73.6188C134.771 73.5233 134.842 73.4386 134.912 73.341C134.984 73.2477 135.062 73.1587 135.14 73.0524L135.146 73.0459C135.161 73.0242 135.17 72.9938 135.166 72.9634C135.157 72.9005 135.101 72.8549 135.036 72.8636C134.886 72.8831 134.749 72.9482 134.63 73.0307C134.504 73.1131 134.402 73.226 134.315 73.3475C134.235 73.4712 134.168 73.6057 134.137 73.7511C134.105 73.8965 134.094 74.0463 134.128 74.1939C134.135 74.2156 134.15 74.2394 134.172 74.2525ZM137.282 73.3453C136.203 74.1418 135.437 75.3353 135.185 76.6288C135.179 76.6722 135.205 76.7199 135.25 76.7329C135.298 76.7481 135.35 76.7199 135.363 76.67C135.73 75.459 136.5 74.387 137.529 73.6926C138.03 73.3345 138.618 73.0936 139.209 72.8202C139.797 72.5489 140.409 72.219 140.873 71.6895C140.936 71.6157 140.951 71.5029 140.897 71.4139C140.83 71.3076 140.689 71.2707 140.58 71.338C139.838 71.7937 138.944 71.9716 138.052 72.0541C137.601 72.104 137.151 72.091 136.678 72.1279C136.216 72.1626 135.695 72.2668 135.326 72.6183C135.287 72.6574 135.283 72.7203 135.316 72.7637C135.352 72.8115 135.422 72.8202 135.467 72.7833C135.808 72.5228 136.249 72.4556 136.696 72.4512C137.138 72.4534 137.609 72.4751 138.078 72.4512C138.428 72.4382 138.786 72.4035 139.137 72.3384C139.096 72.3623 139.053 72.384 139.009 72.4035C138.441 72.6813 137.826 72.9439 137.282 73.3453ZM88.8898 40.5567C89.3498 40.5285 89.7665 40.3397 90.1463 40.127C90.5239 39.9035 90.8863 39.6583 91.2096 39.3675C91.2487 39.3306 91.2791 39.2807 91.2856 39.2242C91.3333 38.788 91.4006 38.354 91.4614 37.9178C91.5178 37.4816 91.5829 37.0476 91.6545 36.6136L91.6567 36.6005C91.6719 36.5029 91.6154 36.4052 91.5178 36.377C90.8754 36.1709 90.2135 36.0255 89.543 35.9907C89.5017 35.9886 89.4627 36.0168 89.4518 36.058C89.4388 36.1079 89.467 36.1578 89.5169 36.1709C90.0942 36.3206 90.6584 36.4964 91.2031 36.7134C91.1315 37.091 91.0599 37.4686 90.997 37.8505C90.934 38.2607 90.8885 38.6752 90.8494 39.0897C90.5608 39.3458 90.27 39.5997 89.951 39.8123C89.6102 40.0402 89.2543 40.2551 88.8659 40.3397L88.8615 40.3419C88.8116 40.3527 88.7726 40.4005 88.7769 40.4547C88.7791 40.5133 88.8312 40.5567 88.8898 40.5567ZM110.522 50.8193C110.52 50.3679 110.424 49.9209 110.24 49.5194C109.999 48.9725 109.593 48.5341 109.089 48.1999C108.868 48.0437 108.625 47.9048 108.38 47.7724C108.927 48.354 109.361 49.0224 109.5 49.8037C109.549 50.0858 109.966 50.4222 110.522 50.8193ZM114.686 54.6669C114.96 55.1248 115.19 55.6088 115.342 56.1166C115.357 56.1643 115.329 56.2164 115.281 56.2294C115.237 56.2425 115.194 56.2229 115.174 56.1882C114.921 55.7368 114.651 55.3006 114.352 54.8905C114.213 54.7017 114.066 54.5172 113.916 54.3371C114.183 55.1053 114.68 55.8128 114.582 56.6179C113.777 57.1192 112.703 57.2993 111.754 57.2711C111.472 56.4617 111.043 55.8432 110.42 55.2507C110.988 56.0515 111.223 56.9022 111.218 57.8831C110.587 58.1131 109.921 58.1196 109.248 58.0741C108.766 57.2169 108.098 56.4638 107.306 55.8822C107.306 56.2685 107.876 57.2125 107.876 57.601C107.227 58.061 105.324 57.9504 104.545 57.7941C104.148 57.1778 103.935 56.4313 103.291 56.0862C103.469 56.4204 103.927 57.4078 104.102 57.742C103.71 58.213 102.859 57.7681 102.288 57.9873C101.294 57.6509 100.81 56.4096 100.387 55.4504C100.211 55.0554 99.8533 54.7711 99.4757 54.5606C99.1198 54.3631 98.7378 54.2112 98.3906 53.9964C98.5056 54.1939 98.6315 54.3848 98.7812 54.5606C99.1632 55.0359 99.7079 55.4656 100.068 56.058C100.431 56.6374 100.663 57.2624 100.865 57.8831C100.882 57.9395 100.854 58.0003 100.795 58.0198C100.743 58.0372 100.689 58.0111 100.665 57.9677C100.361 57.3883 100.086 56.8002 99.7187 56.2924C99.3672 55.7802 98.8659 55.3853 98.4167 54.8623C97.9935 54.3306 97.7092 53.7121 97.5399 53.0784C97.184 52.4599 96.9779 51.7025 96.7739 51.0428C96.3333 49.6192 95.5543 48.3019 94.5148 47.2321C94.3173 47.0302 94.1111 46.8349 93.9049 46.6396C94.0308 46.8176 94.1654 46.9912 94.3086 47.1583C94.5885 47.4881 94.8967 47.8202 95.1463 48.2216C95.6324 49.0506 95.7148 49.9838 95.8472 50.8323C95.9753 51.6765 96.1858 52.538 96.7999 53.124C96.8433 53.1652 96.8433 53.2347 96.8043 53.2781C96.7652 53.3171 96.7066 53.3215 96.6632 53.2911C96.2834 53.0198 96.0143 52.6183 95.8212 52.206C95.6345 51.785 95.5195 51.3423 95.4327 50.9061C95.2613 50.0359 95.1723 49.1613 94.7383 48.4647C94.5321 48.111 94.2478 47.7898 93.9657 47.4447C93.6836 47.0953 93.4167 46.7177 93.217 46.3141C93.089 46.0689 92.9826 45.815 92.8893 45.5567C92.8546 45.509 92.8134 45.4677 92.7808 45.42C92.2969 44.7386 91.9258 43.9074 92.2339 43.1305L104.667 44.0224C105.298 45.0836 106.21 45.9408 107.178 46.7069C107.329 46.7828 107.484 46.8566 107.638 46.9282C108.208 47.1865 108.801 47.4469 109.356 47.8093C109.901 48.1869 110.394 48.7143 110.626 49.3566C110.828 49.8818 110.878 50.4569 110.778 50.9994C111.448 51.4725 112.264 52.0302 112.902 52.69C113.187 52.9091 113.46 53.1435 113.712 53.3996C114.079 53.788 114.413 54.209 114.686 54.6669ZM81.3615 57.2798C81.4115 57.2798 81.4527 57.2407 81.4549 57.1908V57.1886C81.4701 56.7676 81.7088 56.3944 82.0169 56.1383C82.1276 56.0493 82.2448 55.9734 82.3685 55.9039C82.0082 56.3249 81.8238 56.9022 81.9041 57.4534C81.9084 57.4577 81.9128 57.4621 81.9193 57.4664C81.9128 57.5597 81.9062 57.6531 81.9062 57.7464C81.9149 58.0242 81.9518 58.2998 82.0365 58.5645C82.1168 58.8293 82.2253 59.0854 82.3858 59.3089C82.4119 59.3458 82.4553 59.3631 82.4987 59.3544C82.5573 59.3414 82.5964 59.2828 82.5833 59.2242C82.5312 58.9682 82.4792 58.7229 82.4466 58.4734C82.4227 58.2759 82.401 58.0762 82.3902 57.8788C84.2435 59.3913 86.7326 60.0858 89.0547 59.4998C89.059 59.0246 89.2088 58.6231 89.4366 58.2043C89.4128 58.8054 89.6428 59.3588 90.0551 59.7993C92.0126 60.1683 94.0699 60.0554 95.997 59.5433C95.9123 59.1722 95.7235 58.7794 95.6389 58.4083C95.8602 58.6101 96.0729 58.7685 96.3029 58.9074C96.1641 58.3692 95.9774 57.703 95.793 57.2104C95.4284 56.2403 93.8485 56.338 93.8485 56.338C92.3555 56.4834 91.0946 56.5376 90.4783 56.5376C88.5881 56.5376 88.9028 54.8058 88.9028 54.8058L88.8832 54.157C88.8832 54.1548 88.6272 53.5189 88.5208 53.3649C88.4427 53.2498 88.651 52.831 88.7661 52.6162C88.9657 52.6552 89.1697 52.6769 89.3715 52.6921C89.6037 52.7117 89.8359 52.7117 90.066 52.7095C90.296 52.7008 90.5282 52.6921 90.7582 52.6617C90.9883 52.6335 91.2183 52.601 91.4483 52.538C91.4874 52.5294 91.5178 52.4968 91.5286 52.4556C91.5395 52.3948 91.5026 52.3362 91.4397 52.3232C91.2096 52.2755 90.9774 52.2559 90.7474 52.2407C90.5152 52.2255 90.283 52.2277 90.0529 52.2342C89.8207 52.2451 89.5907 52.2559 89.3607 52.2906C89.1589 52.3167 88.9592 52.3514 88.7595 52.3992C88.6706 52.295 88.523 52.1084 88.4145 51.8805C88.2582 51.5354 88.7899 50.8931 88.7899 50.8931C88.7899 50.8931 87.1992 50.318 86.9366 49.7906C86.8064 49.5302 87.3077 49.2459 87.8806 48.5472C88.4818 47.8136 88.6901 47.4057 88.6901 47.4057L88.6141 44.7472C88.6141 43.8727 88.7747 43.0393 89.046 42.2603C90.2309 42.397 91.418 42.5142 92.605 42.6248L96.6372 42.9699L100.674 43.2498C102.019 43.3323 103.367 43.4104 104.717 43.456C104.773 43.4582 104.821 43.4169 104.827 43.3627C104.834 43.3019 104.79 43.2498 104.734 43.2412C103.393 43.0827 102.049 42.9547 100.706 42.831L96.6719 42.4968L92.6354 42.2255C91.4657 42.1583 90.2938 42.0953 89.1198 42.0498C89.1437 41.9868 89.1654 41.9196 89.1914 41.8566C89.0807 41.9065 88.9766 41.9695 88.8767 42.0411C88.7834 42.0367 88.6879 42.0324 88.5924 42.0281C88.5447 42.0259 88.5035 42.0606 88.4991 42.1084C88.4926 42.1583 88.5295 42.2017 88.5794 42.2082C88.6055 42.2125 88.6293 42.2147 88.6554 42.2169C88.2626 42.5706 87.9783 43.061 87.8155 43.571C87.566 44.3653 87.5529 45.2117 87.477 46.0406C87.4401 46.4139 87.388 46.7915 87.2969 47.1583C87.2057 47.4252 87.0842 47.6791 86.9193 47.9048C86.4136 48.6275 85.4761 48.8727 84.6385 49.4065C83.7791 49.9556 83.2387 50.9907 83.3103 52.0107C83.3429 52.5098 83.4687 52.9677 83.4839 53.4104C83.5035 53.8466 83.4058 54.3089 83.0846 54.5953L83.0825 54.5975C83.0412 54.6322 83.0347 54.693 83.0651 54.7386C83.0977 54.7863 83.1649 54.7993 83.2148 54.7668C83.6619 54.4586 83.8095 53.9009 83.8312 53.4104C83.8377 52.907 83.7335 52.4382 83.7313 51.9955C83.7075 51.1231 84.1567 50.2594 84.901 49.7993C85.2352 49.5715 85.6194 49.3892 86.0056 49.1765C85.2743 49.7993 84.4366 50.331 84.2088 51.236C84.0525 51.8523 84.2305 52.4968 84.3173 53.124C84.3867 53.6101 84.378 54.1483 84.161 54.5671C83.8029 54.782 83.3928 54.9317 82.9696 55.101C82.5486 55.2768 82.0972 55.4829 81.7457 55.8432C81.3984 56.1947 81.1619 56.7112 81.2747 57.2082C81.2834 57.2472 81.3203 57.2776 81.3615 57.2798ZM154.22 45.8128C154.183 45.7781 154.135 45.7629 154.087 45.7585L153.829 45.7607L152.69 45.7759C152.601 45.7694 152.512 45.8323 152.486 45.9191C152.479 45.943 152.477 45.956 152.475 45.9951L152.473 46.1383L152.47 46.4226C152.464 46.8024 152.466 47.1821 152.449 47.5597C152.44 47.7811 152.423 47.8722 152.51 47.959C152.549 48.0003 152.603 48.0285 152.659 48.0372C152.716 48.0459 152.839 48.0459 152.926 48.0502C153.304 48.0741 153.684 48.0871 154.061 48.1196V48.1023C154.209 48.0979 154.332 47.9873 154.361 47.8549C154.376 47.8028 154.363 47.7095 154.361 47.6097L154.35 47.3254L154.311 46.186C154.304 46.1058 154.306 45.969 154.298 45.9387C154.287 45.8887 154.259 45.8432 154.22 45.8128ZM154.137 45.3223C154.278 45.3375 154.413 45.4048 154.51 45.5025C154.612 45.6001 154.678 45.7303 154.699 45.867C154.714 46.0276 154.699 46.0797 154.701 46.186L154.66 47.3254L154.649 47.6097L154.643 47.7507C154.638 47.8028 154.634 47.8722 154.612 47.9287C154.539 48.1674 154.3 48.328 154.061 48.3171V48.3019C153.684 48.3323 153.304 48.3475 152.926 48.3714C152.822 48.3735 152.753 48.3801 152.622 48.3779C152.492 48.367 152.362 48.3128 152.264 48.2216C152.162 48.1348 152.093 48.009 152.067 47.8788C152.045 47.7225 152.056 47.6661 152.047 47.5597C152.03 47.1821 152.032 46.8024 152.026 46.4226L152.021 46.1383V45.9951C152.019 45.943 152.023 45.8562 152.045 45.7911C152.119 45.509 152.395 45.2985 152.69 45.3006L153.829 45.3137C153.933 45.3158 153.994 45.3115 154.137 45.3223ZM151.192 45.4287C150.971 45.3701 150.747 45.3462 150.524 45.3267C150.303 45.3028 150.081 45.3006 149.858 45.2985C149.636 45.3028 149.413 45.3071 149.191 45.3354C148.97 45.3592 148.747 45.3874 148.525 45.4439C148.493 45.4525 148.467 45.4786 148.458 45.5111C148.445 45.561 148.473 45.6131 148.525 45.6262C148.747 45.6847 148.97 45.713 149.191 45.7368C149.382 45.7585 149.573 45.765 149.764 45.7694C149.738 45.9169 149.719 46.0602 149.704 46.2056C149.675 46.4291 149.671 46.6505 149.667 46.874C149.667 47.0975 149.671 47.3189 149.695 47.5424C149.714 47.7637 149.738 47.9873 149.797 48.2108C149.806 48.2498 149.836 48.2802 149.877 48.2911C149.936 48.3063 149.997 48.2694 150.012 48.2108C150.068 47.9873 150.094 47.7637 150.114 47.5424C150.138 47.3189 150.14 47.0975 150.14 46.874C150.138 46.6505 150.131 46.4291 150.105 46.2056C150.09 46.0602 150.068 45.9169 150.042 45.7694C150.203 45.7672 150.363 45.7629 150.524 45.7455C150.747 45.726 150.971 45.6999 151.192 45.6435C151.229 45.6327 151.262 45.6044 151.273 45.5632C151.288 45.5046 151.253 45.4439 151.192 45.4287ZM155.678 45.6044C155.726 45.8041 155.754 46.0059 155.776 46.2056C155.793 46.3401 155.797 46.4747 155.804 46.6092C156.164 46.594 156.524 46.5745 156.882 46.568L157.206 46.5615C157.275 46.5593 157.342 46.5419 157.399 46.5051C157.52 46.44 157.599 46.3054 157.601 46.1665C157.603 46.0298 157.536 45.8866 157.41 45.8106C157.351 45.7694 157.28 45.7455 157.206 45.739L156.908 45.7216C156.522 45.6999 156.118 45.6479 155.678 45.6044ZM155.363 47.5424C155.342 47.3189 155.337 47.0975 155.337 46.874C155.342 46.6505 155.346 46.4291 155.372 46.2056C155.396 45.9821 155.424 45.7607 155.485 45.5372C155.485 45.5328 155.489 45.5307 155.493 45.5242C155.496 45.5068 155.496 45.4916 155.498 45.4742L155.511 45.4721C155.925 45.4308 156.383 45.3766 156.856 45.3527L157.212 45.3375C157.355 45.3332 157.503 45.3657 157.629 45.4395C157.885 45.5806 158.061 45.867 158.063 46.1665C158.065 46.466 157.902 46.7633 157.64 46.9152C157.512 46.9912 157.36 47.0302 157.212 47.0324L156.882 47.0259C156.524 47.0194 156.166 47.002 155.808 46.9847C155.806 47.1713 155.804 47.3558 155.784 47.5424C155.763 47.7637 155.739 47.9873 155.682 48.2108C155.665 48.2694 155.606 48.3063 155.548 48.2911C155.507 48.2802 155.476 48.2498 155.467 48.2108C155.409 47.9873 155.385 47.7637 155.363 47.5424ZM147.546 46.7633C147.219 46.6808 146.93 46.6722 146.709 46.5702C146.477 46.4682 146.351 46.3097 146.372 46.1101C146.394 45.8996 146.57 45.6847 146.802 45.6001C147.041 45.4959 147.332 45.4981 147.622 45.5155C147.664 45.5198 147.705 45.4916 147.716 45.4482C147.729 45.4005 147.701 45.3505 147.653 45.3375C147.36 45.2572 147.034 45.2117 146.7 45.2963C146.366 45.3874 146.06 45.6609 145.977 46.0406C145.93 46.2316 145.973 46.4595 146.092 46.6222C146.207 46.7893 146.366 46.8979 146.522 46.9738C146.845 47.1257 147.169 47.1431 147.418 47.2212C147.542 47.2538 147.659 47.3037 147.731 47.3623C147.813 47.4274 147.878 47.5207 147.898 47.6053C147.918 47.6921 147.905 47.7507 147.85 47.8093C147.796 47.8657 147.687 47.9178 147.564 47.9504C147.034 48.0762 146.446 48.0415 145.906 47.8549C145.856 47.8397 145.802 47.8592 145.776 47.9048C145.745 47.9569 145.765 48.022 145.815 48.0524C146.359 48.3584 147.013 48.469 147.655 48.3605C147.818 48.328 148.004 48.2781 148.163 48.124C148.328 47.9742 148.395 47.703 148.341 47.5012C148.252 47.091 147.863 46.8393 147.546 46.7633ZM89.8186 53.7077C89.773 53.6882 89.7318 53.686 89.6862 53.6817C89.645 53.686 89.6016 53.686 89.5538 53.7056C89.5039 53.7229 89.4562 53.7403 89.3932 53.7815L89.3867 53.788C89.3325 53.8249 89.3129 53.8987 89.3455 53.9595C89.3824 54.0289 89.4345 54.0702 89.4909 54.1005C89.543 54.1374 89.6059 54.1505 89.6667 54.157C89.7274 54.1591 89.7882 54.1548 89.8468 54.1266C89.9054 54.1027 89.9618 54.0702 90.0074 54.0029C90.0508 53.94 90.0399 53.851 89.977 53.8011L89.9661 53.7924C89.9119 53.7446 89.862 53.7273 89.8186 53.7077ZM91.3529 45.1031L91.3681 45.1118C91.3941 45.1335 91.4288 45.1379 91.4657 45.127C91.5221 45.1097 91.5547 45.0467 91.5352 44.9881C91.4787 44.8058 91.3637 44.6301 91.201 44.5042C91.0425 44.3762 90.8494 44.298 90.6541 44.2611C90.4588 44.2308 90.2635 44.2308 90.0812 44.2742C89.8945 44.3154 89.7209 44.374 89.5625 44.4847C89.5408 44.502 89.5234 44.5281 89.5234 44.5584C89.5191 44.6105 89.5603 44.6539 89.6124 44.6561H89.6211C89.7904 44.6626 89.9575 44.6626 90.1137 44.6735C90.2721 44.6865 90.424 44.6973 90.5673 44.7255C90.7105 44.7516 90.8407 44.8015 90.9731 44.8558C91.1055 44.9122 91.2161 45.0077 91.3529 45.1031ZM90.1788 46.6678C90.1788 46.989 90.3329 47.2516 90.5239 47.2516C90.7148 47.2516 90.8689 46.989 90.8689 46.6678C90.8689 46.3466 90.7148 46.084 90.5239 46.084C90.3329 46.084 90.1788 46.3466 90.1788 46.6678ZM158.56 43.8814L154.458 39.7798H148.655L144.552 43.8814V49.6865L148.655 53.788H154.458L158.56 49.6865V43.8814ZM155.552 37.1344L161.205 42.7876V50.7802L155.552 56.4334H152.991V61.8458C153.13 61.7676 153.269 61.6895 153.406 61.6049C153.514 61.5398 153.621 61.4682 153.727 61.3987C153.72 61.3618 153.714 61.3228 153.707 61.2859C153.69 61.1643 153.69 61.0385 153.694 60.9169C153.703 60.7933 153.714 60.6717 153.747 60.5502C153.775 60.4308 153.807 60.3093 153.87 60.1943C153.896 60.1465 153.957 60.1292 154.003 60.1531C154.022 60.1661 154.037 60.1813 154.046 60.203L154.05 60.2138C154.102 60.3375 154.126 60.459 154.146 60.5784C154.168 60.6999 154.17 60.8171 154.17 60.9343C154.165 60.9994 154.163 61.0623 154.155 61.1275L154.882 60.6305C154.929 60.5979 154.997 60.611 155.031 60.6609C155.059 60.6999 155.055 60.7498 155.029 60.7846C154.851 61.0385 154.632 61.262 154.4 61.466C154.17 61.6743 153.914 61.8501 153.649 62.0129C153.436 62.1344 153.217 62.2429 152.991 62.334V62.4078L151.036 63.0676C150.791 63.1522 150.624 63.3844 150.624 63.6426C150.624 63.979 150.895 64.2525 151.231 64.2525H151.385C151.396 64.2394 151.411 64.2286 151.429 64.2242C151.863 64.1136 152.295 64.0116 152.72 63.8922C153.145 63.7685 153.569 63.647 153.985 63.5059C154.406 63.3714 154.819 63.2173 155.233 63.0654C155.648 62.9091 156.058 62.7399 156.474 62.5793C156.533 62.5576 156.594 62.5858 156.615 62.64C156.635 62.69 156.615 62.742 156.576 62.7681C156.207 63.0328 155.808 63.2542 155.4 63.4517C154.992 63.6535 154.565 63.8163 154.133 63.9595C153.699 64.094 153.256 64.209 152.807 64.2828C152.358 64.3588 151.906 64.4087 151.451 64.4044C151.407 64.4044 151.377 64.3718 151.368 64.3327L151.01 64.5129C150.773 64.6322 150.624 64.8775 150.624 65.1422C150.624 65.5198 150.917 65.8215 151.286 65.8475L152.421 65.5893C152.844 65.4829 153.265 65.3809 153.679 65.2637C154.098 65.1509 154.51 65.0229 154.925 64.897L156.175 64.5064C156.231 64.489 156.292 64.5215 156.309 64.578C156.325 64.6279 156.303 64.6778 156.262 64.7038C155.882 64.936 155.478 65.1248 155.068 65.2941C154.658 65.4656 154.233 65.6023 153.805 65.7195C153.373 65.8345 152.937 65.9278 152.497 65.9821C152.054 66.0385 151.609 66.0754 151.164 66.058C151.134 66.058 151.112 66.0385 151.095 66.0146L150.893 66.0992C150.728 66.1665 150.624 66.3249 150.624 66.5007V66.709C150.624 66.9261 150.786 67.1127 151.003 67.1409L152.086 67.2798C152.086 67.2711 152.078 67.2603 152.08 67.2494C152.089 67.2038 152.125 67.1669 152.171 67.1626C152.49 67.1105 152.805 67.065 153.111 67.002C153.419 66.9347 153.723 66.861 154.02 66.7698C154.319 66.6808 154.612 66.5723 154.908 66.4595C155.201 66.3423 155.485 66.2056 155.78 66.0689C155.826 66.0472 155.882 66.0667 155.904 66.1144C155.921 66.1492 155.91 66.1904 155.884 66.2186C155.65 66.4551 155.374 66.6505 155.083 66.8197C154.793 66.989 154.48 67.1192 154.159 67.2234C153.838 67.321 153.506 67.3926 153.169 67.4165C152.909 67.436 152.651 67.4295 152.395 67.4013L152.143 67.4664L151.585 67.3992C151.342 67.3688 151.125 67.5402 151.099 67.7833C151.073 68.009 151.227 68.2173 151.451 68.2585L152.442 68.4408C152.514 68.456 152.585 68.4495 152.655 68.4278L152.991 68.3215V70.2616H150.12V61.6005C150.031 61.5897 149.944 61.5875 149.855 61.581C149.877 62.1669 149.727 62.7507 149.434 63.2498C149.27 63.5385 149.053 63.7946 148.807 64.0137C148.564 64.2329 148.278 64.4022 147.976 64.515C147.928 64.5346 147.876 64.5107 147.857 64.4608C147.842 64.4239 147.859 64.3783 147.894 64.3544C148.143 64.183 148.36 63.979 148.558 63.762C148.751 63.5406 148.909 63.2933 149.044 63.0372C149.306 62.5185 149.437 61.9413 149.406 61.3683V61.3488C149.398 61.2316 149.489 61.1318 149.606 61.1275C149.617 61.1253 149.628 61.1253 149.638 61.1275C150.19 61.1839 150.689 61.338 151.192 61.4334C151.253 61.4443 151.292 61.4985 151.279 61.5593C151.277 61.581 151.264 61.6027 151.247 61.6157C152.123 61.696 152.863 61.657 152.625 61.2425C152.188 60.4894 150.854 59.361 150.12 58.864V56.4334H147.559L141.906 50.7802V42.7876L147.559 37.1344H155.552ZM194.081 143.469H190.051L190.263 149.815H194.317L194.081 143.469ZM194.89 165.058H190.771L191.006 172.024H195.151L194.89 165.058ZM195.778 188.795H191.566L192.792 225.466H197.156L195.778 188.795ZM118.323 188.795H122.54L121.307 225.466H116.941L118.323 188.795Z" fill="#393A3F"/>
</g>
<mask id="mask4_1_17" style="mask-type:luminance" maskUnits="userSpaceOnUse" x="172" y="15" width="19" height="45">
<path d="M172.837 15.0312H190.754V59.6146H172.837V15.0312Z" fill="white"/>
</mask>
<g mask="url(#mask4_1_17)">
<path d="M211.7 165.982V179.695H177.763C163.169 199.682 138.184 212.59 95.4284 208.352C72.3859 206.066 52.7179 197.837 38.3928 184.604L48.3212 215.884H16.8194L29.7426 175.166C19.1654 161.459 13.1758 143.944 13.1758 123.278C13.1758 74.313 56.7847 11.329 105.648 11.329C132.965 11.329 158.66 19.4302 176.012 35.129C176.802 32.8546 178.957 31.2162 181.494 31.2162C184.697 31.2162 187.303 33.8269 187.303 37.0387C187.303 39.6667 185.554 41.8911 183.163 42.6116C192.592 54.1025 198.193 68.675 198.193 86.2053C198.193 97.8872 198.009 111.505 196.379 125.337H206.854V136.52H194.721C194.215 139.317 193.636 142.106 192.972 144.871H209.131V156.893H189.458C188.373 159.992 187.151 163.028 185.778 165.982H211.7Z" fill="#F9D291"/>
</g>
<mask id="mask5_1_17" style="mask-type:luminance" maskUnits="userSpaceOnUse" x="172" y="19" width="19" height="41">
<path d="M172.837 19.6667H190.754V59.6146H172.837V19.6667Z" fill="white"/>
</mask>
<g mask="url(#mask5_1_17)">
<path d="M176.147 23.4579C177.034 21.3746 179.092 19.9141 181.494 19.9141C183.896 19.9141 185.951 21.3746 186.839 23.4579C186.731 26.3247 184.382 28.6163 181.494 28.6163C178.606 28.6163 176.257 26.3247 176.147 23.4579ZM149.684 52.5443L145.513 48.3624V42.4466L149.684 38.2648H155.589L159.76 42.4466V48.3624L155.589 52.5443H149.684ZM152.664 65.0833C152.664 65.0833 152.677 65.0855 152.696 65.0855C152.306 65.0291 152.043 64.9878 152.043 64.9878L150.209 69.4214C149.109 69.5582 147.542 68.8832 147.542 68.8832C147.542 68.8832 146.965 68.7075 146.366 68.2539L146.364 68.2517C145.912 67.9089 145.446 67.4097 145.203 66.7044L146.971 63.0195C146.971 63.0195 147.471 58.5425 147.431 58.1758C147.395 57.809 150.437 56.4939 150.928 56.7261C151.103 56.8108 151.438 57.043 151.82 57.3424C152.792 57.0104 153.84 56.6697 154.543 56.7392C155.852 56.8694 157.026 56.4766 157.18 57.0473C157.334 57.6159 157.642 58.0846 157.97 58.6879C158.297 59.2934 157.683 59.888 157.503 60.3438C157.321 60.8017 158 61.4332 158.096 61.6285C158.189 61.826 157.497 63.0391 157.05 63.4839C156.6 63.9332 157.028 65.1419 156.227 65.3394C156.127 65.3655 155.986 65.3763 155.817 65.3828L153.684 66.0664C153.619 66.0881 153.549 66.0924 153.48 66.0794L152.536 65.9058C152.323 65.8646 152.175 65.6649 152.201 65.4501C152.227 65.2201 152.434 65.0551 152.664 65.0833ZM17.5899 213.458L19.0482 208.862H46.0925L47.5508 213.458H17.5899ZM36.7479 179.415H28.395L29.8534 174.819H35.2874L34.8208 173.343C34.122 171.147 31.0209 171.147 30.3221 173.343L27.1515 183.33H37.9892L39.4475 187.926H25.6932L24.4519 191.841H40.6889L42.1472 196.438H22.9935L21.7501 200.35H43.3907L44.849 204.947H20.2917L17.5899 213.458H8.55127V215.884H56.5895V213.458H47.5508L36.7479 179.415ZM208.959 179.157H201.765L207.219 166.774H210.324L211.164 173.97L208.959 179.157ZM194.437 179.157H187.245L193.076 166.774H200.081L194.437 179.157ZM179.916 179.157H172.724L178.933 166.774H185.938L179.916 179.157ZM165.396 179.157H158.202L164.788 166.774H171.793L165.396 179.157ZM150.873 179.157H143.679L150.645 166.774H157.651L150.873 179.157ZM136.353 179.157H129.159L136.503 166.774H143.508L136.353 179.157ZM114.639 179.157L122.358 166.774H129.363L121.83 179.157H114.639ZM104.165 179.157L105.046 171.62L108.215 166.774H115.22L107.31 179.157H104.165ZM211.935 164.96H104L102.132 180.971H213.805L211.935 164.96ZM107.612 149.667L110.396 145.574H117.08L109.816 156.496H106.813L107.612 149.667ZM130.578 145.574L123.645 156.496H116.793L123.892 145.574H130.578ZM137.39 145.574H144.074L137.475 156.496H130.624L137.39 145.574ZM150.886 145.574H157.573L151.305 156.496H144.454L150.886 145.574ZM164.385 145.574H171.069L165.135 156.496H158.284L164.385 145.574ZM177.881 145.574H184.567L178.966 156.496H172.115L177.881 145.574ZM191.379 145.574H198.063L192.796 156.496H185.945L191.379 145.574ZM204.875 145.574H207.848L208.61 152.104L206.626 156.496H199.775L204.875 145.574ZM104.78 158.31H211.158L209.458 143.76H106.477L104.78 158.31ZM109.945 129.678L112.382 126.231H118.775L112.097 135.886H109.22L109.945 129.678ZM131.681 126.231L125.298 135.886H118.757L125.287 126.231H131.681ZM138.195 126.231H144.589L138.499 135.886H131.961L138.195 126.231ZM151.103 126.231H157.497L151.702 135.886H145.162L151.103 126.231ZM164.009 126.231H170.402L164.903 135.886H158.365L164.009 126.231ZM176.917 126.231H183.31L178.106 135.886H171.566L176.917 126.231ZM189.823 126.231H196.216L191.307 135.886H184.767L189.823 126.231ZM202.733 126.231H205.587L206.283 132.175L204.508 135.886H197.97L202.733 126.231ZM107.184 137.701H208.751L207.199 124.417H108.738L107.184 137.701ZM177.601 79.3759L169.699 87.2839H160.491L168.391 79.3759L160.491 71.4679H169.699L177.601 79.3759ZM167.75 79.3759L159.398 87.7374H169.888L178.241 79.3759L169.888 71.0143H159.398L167.75 79.3759ZM176.181 71.4679H185.392L193.291 79.3759L185.392 87.2839H176.181L184.081 79.3759L176.181 71.4679ZM175.09 87.7374H185.578L193.931 79.3759L185.578 71.0143H175.09L183.441 79.3759L175.09 87.7374ZM197.761 78.0022L190.78 71.0143H196.685C196.715 71.1662 196.741 71.3181 196.772 71.4679H191.874L197.692 77.2904C197.718 77.5269 197.737 77.7678 197.761 78.0022ZM190.78 87.7374L197.985 80.526C198 80.7235 198.015 80.9232 198.028 81.1228L191.874 87.2839H198.193C198.193 87.4336 198.191 87.5855 198.191 87.7374H190.78ZM80.6737 21.3225H89.8837L97.783 29.2305L89.8837 37.1385H80.6737L88.573 29.2305L80.6737 21.3225ZM90.0704 37.592L98.4232 29.2305L90.0704 20.8689H79.5799L87.9328 29.2305L79.5799 37.592H90.0704ZM96.3659 21.3225H105.574L113.473 29.2305L105.574 37.1385H103.961C103.028 36.7543 101.984 36.4397 100.904 36.2747C99.2848 36.0273 97.731 36.3529 96.418 37.0842L104.263 29.2305L96.3659 21.3225ZM95.2722 37.592H95.6411C93.8616 38.9093 92.681 41.0382 92.681 43.4601L92.7527 45.9991C92.7527 45.9991 92.5552 46.3854 91.9823 47.0864C91.4354 47.7548 90.958 48.026 91.0817 48.2734C91.3334 48.7791 92.8481 49.326 92.8481 49.326C92.8481 49.326 92.3403 49.9379 92.4901 50.2678C92.642 50.5955 92.8916 50.8494 92.8916 50.8494C92.8916 50.8494 92.4901 51.5373 92.5921 51.6849C92.6919 51.8325 92.9371 52.4401 92.9371 52.4423L92.9567 53.0608C92.9567 53.0608 92.655 54.7166 94.4562 54.7166C95.0443 54.7166 96.2444 54.6623 97.6659 54.5234C97.6659 54.5234 99.1719 54.4301 99.5192 55.3568C99.8642 56.2856 100.218 57.8524 100.218 57.8524L104.55 61.98L109.131 57.3207C109.131 57.3207 107.553 53.0282 106.913 50.526C108.28 46.9562 108.606 39.8533 105.893 38.1237C105.609 37.9414 105.292 37.7635 104.953 37.592H105.763L114.113 29.2305L105.763 20.8689H95.2722L103.625 29.2305L95.2722 37.592ZM112.058 21.3225H121.266L129.165 29.2305L121.266 37.1385H112.058L119.955 29.2305L112.058 21.3225ZM110.962 37.592H121.453L129.806 29.2305L121.453 20.8689H110.962L119.315 29.2305L110.962 37.592ZM127.748 21.3225H136.956L144.856 29.2305L136.956 37.1385H127.748L135.648 29.2305L127.748 21.3225ZM126.655 37.592H137.145L145.496 29.2305L137.145 20.8689H126.655L135.007 29.2305L126.655 37.592ZM105.248 99.174H111.55L103.464 114.233H97.1646L105.248 99.174ZM96.6502 114.233H90.4067L98.4905 99.174H104.736L96.6502 114.233ZM83.5903 114.233L91.6763 99.174H97.9762L89.8924 114.233H83.5903ZM83.076 114.233H76.8325L84.9163 99.174H91.162L83.076 114.233ZM70.0183 114.233L78.0999 99.174H84.402L76.3182 114.233H70.0183ZM69.504 114.233H63.2583L71.3442 99.174H77.5877L69.504 114.233ZM56.4441 114.233L64.5278 99.174H70.8299L62.744 114.233H56.4441ZM55.9297 114.233H49.6863L57.7679 99.174H64.0135L55.9297 114.233ZM49.5322 99.174H57.2557L49.5322 113.56V99.174ZM112.065 99.174H118.308L110.224 114.233H103.979L112.065 99.174ZM125.122 99.174L117.041 114.233H110.739L118.825 99.174H125.122ZM125.637 99.174H131.882L123.797 114.233H117.553L125.637 99.174ZM138.699 99.174L130.613 114.233H124.311L132.397 99.174H138.699ZM139.211 99.174H145.457L137.373 114.233H131.127L139.211 99.174ZM152.271 99.174L144.187 114.233H137.887L145.971 99.174H152.271ZM152.785 99.174H159.031L150.945 114.233H144.701L152.785 99.174ZM165.845 99.174L157.761 114.233H151.459L159.545 99.174H165.845ZM166.359 99.174H172.603L164.519 114.233H158.276L166.359 99.174ZM179.419 99.174L171.333 114.233H165.033L173.117 99.174H179.419ZM179.934 99.174H186.179L178.093 114.233H171.848L179.934 99.174ZM192.991 99.174L184.91 114.233H178.608L186.691 99.174H192.991ZM110.494 114.686H197.373C197.384 114.534 197.397 114.385 197.408 114.233H192.18L197.95 103.486C197.963 103.145 197.972 102.807 197.983 102.468L191.665 114.233H185.422L193.506 99.174H198.07C198.074 99.0221 198.076 98.8724 198.08 98.7205H49.5322V39.135C49.3803 39.2912 49.2305 39.4562 49.0786 39.6168V114.402L48.9267 114.686H49.0786V192.913C49.2305 193.011 49.3803 193.113 49.5322 193.211V114.686H110.494ZM23.9419 99.174H30.1876L22.1016 114.233H15.8581L23.9419 99.174ZM37.0018 99.174L28.9159 114.233H22.6159L30.6997 99.174H37.0018ZM43.0521 99.174V100.493L35.6758 114.233H29.4302L37.5161 99.174H43.0521ZM43.0521 114.233H36.1902L43.0521 101.453V114.233ZM22.3729 114.686H43.0521V188.584C43.2019 188.705 43.3516 188.822 43.5035 188.94V54.3086L44.02 51.7044C44.02 51.7044 43.8117 51.6176 43.5035 51.4831V45.9384C43.3516 46.1185 43.1997 46.3008 43.0521 46.4852V51.2899C42.3403 50.9839 41.4397 50.589 41.0578 50.398C40.6151 50.1767 39.2479 46.4049 38.6489 43.3971C38.3364 41.8303 38.7791 40.2157 38.5035 39.9618C37.974 39.4735 37.4749 40.7322 37.2145 42.0907C37.056 40.9102 36.9866 39.6037 36.533 40.0703C35.8386 40.7865 36.2509 43.0543 36.3486 43.4861C36.4028 43.7205 36.6893 44.9488 36.9389 46.0295C36.8781 45.9753 36.8173 45.9167 36.7566 45.8646C36.0187 45.2266 35.5304 41.7912 34.9922 42.6332C34.4562 43.4753 34.9336 45.9883 35.1181 46.3919C35.2787 46.7413 36.6502 50.0551 37.017 50.9449C36.0751 52.9631 32.2557 55.3828 32.5921 56.457C32.9284 57.5356 36.0187 55.6823 37.362 55.4978C38.7054 55.3134 40.6541 55.9818 41.5287 55.7148C42.1407 55.5282 42.7418 55.4978 43.0521 55.4957V98.7205H16.4484C16.4093 98.8724 16.3703 99.0221 16.3312 99.174H16.6133L16.0947 100.138C15.958 100.706 15.8234 101.275 15.6954 101.843L17.1277 99.174H23.4276L15.3438 114.233H13.6511C13.6381 114.385 13.6251 114.534 13.6099 114.686H22.3729Z" fill="#F25044"/>
</g>
<mask id="mask6_1_17" style="mask-type:luminance" maskUnits="userSpaceOnUse" x="172" y="31" width="19" height="29">
<path d="M172.837 31.8889H190.754V59.6146H172.837V31.8889Z" fill="white"/>
</mask>
<g mask="url(#mask6_1_17)">
<path d="M151.229 66.9952C151.225 66.9931 151.221 66.9887 151.218 66.9866L150.209 69.4214C149.109 69.5582 147.542 68.8833 147.542 68.8833C147.542 68.8833 146.965 68.7075 146.366 68.2539L146.364 68.2517C145.912 67.9089 145.446 67.4097 145.203 66.7044L146.377 64.263C145.604 64.1241 144.806 64.48 144.406 65.1918L142.214 69.1068C142.214 69.1068 128.532 61.151 124.502 59.5343C120.771 58.0391 115.676 57.7005 114.934 57.6593C114.71 57.6246 114.482 57.5942 114.246 57.5638L114.84 69.2218V71.8563C114.84 71.8563 114.892 71.8911 114.979 71.9475L115.274 77.7309L118.362 78.1237C118.412 78.7596 118.449 79.3997 118.482 80.0399C118.814 78.2821 119.129 76.4939 119.406 74.7383C124.858 78.089 133.766 83.2626 138.004 84.046C147.078 85.7257 149.697 84.5842 151.713 81.7565C152.746 80.3047 153.551 77.9241 154.092 75.9492C154.99 72.6615 153.883 69.1285 151.229 66.9952ZM207.881 180.971H203.204L207.729 215.977H212.957L207.881 180.971ZM201.605 137.701H197.609L198.393 143.76H202.484L201.605 137.701ZM204.593 158.31H200.274L201.134 164.96H205.556L204.593 158.31ZM110.387 164.96H114.81L115.672 158.31H111.353L110.387 164.96ZM102.976 215.977H108.206L112.737 180.971H108.061L102.976 215.977ZM87.2297 41.2769L107.972 42.7678C107.972 42.7678 108.677 35.092 107.972 34.5885C107.267 34.0807 103.538 31.9605 101.824 31.9605C100.112 31.9605 93.9614 33.4753 93.9614 33.4753L92.6507 40.9514L86.5048 40.4957C86.5048 40.9058 86.8217 41.2465 87.2297 41.2769ZM129.263 151.648C128.441 141.952 128.419 110.292 113.703 95.6932C113.703 95.6932 98.1325 87.3403 96.0209 95.0182L135.359 210.834H145.29C145.29 210.834 147.154 194.673 141.722 180.938C136.288 167.201 130.088 161.344 129.263 151.648ZM43.9918 51.6849L41.3464 64.9965C41.3464 64.9965 75.6824 74.5408 78.2323 74.556C81.4115 74.5755 86.277 74.5799 90.7453 74.5755C90.7149 75.6823 90.7149 76.3681 90.7149 76.3681L93.9614 76.2227L95.7431 58.395L95.7475 58.3342C90.0357 58.7335 80.8647 59.339 77.6268 59.339C72.7896 59.339 43.9918 51.6849 43.9918 51.6849ZM109.131 57.3208L109.129 57.3142C109.812 57.3077 110.487 57.3142 111.147 57.3381L112.026 77.4531L97.4944 76.3681L98.6663 58.0239C99.1611 57.9653 99.6841 57.9089 100.218 57.8546L104.55 61.98L109.131 57.3208Z" fill="#30526A"/>
</g>
<mask id="mask7_1_17" style="mask-type:luminance" maskUnits="userSpaceOnUse" x="172" y="15" width="18" height="45">
<path d="M172.837 15.0312H189.667V59.6146H172.837V15.0312Z" fill="white"/>
</mask>
<g mask="url(#mask7_1_17)">
<path d="M118.911 89.6385C118.914 89.6688 118.914 89.6992 118.916 89.7274C118.916 89.6992 118.914 89.6688 118.911 89.6385ZM90.1897 79.8273C90.2592 79.2761 90.1745 79.8924 90.0747 80.7539C89.9228 82.0951 89.7861 83.293 89.6624 84.3715L118.768 86.2227C118.783 86.5504 118.796 86.865 118.809 87.171C118.742 85.6215 118.662 83.7965 118.564 81.6307L90.1897 79.8273ZM89.2739 87.8438C88.9788 90.4957 88.8225 91.9627 88.7422 92.7483C88.6858 93.3147 88.9093 93.8833 89.3629 94.224C90.4002 95.0009 91.6437 95.4718 92.9436 95.5629L104.244 96.3659L109.15 96.5742C111.78 96.6827 114.576 96.7044 117.112 96.0382C117.531 95.9275 117.926 95.7366 118.291 95.5022L118.31 95.487C118.803 95.1702 119.092 94.6211 119.072 94.0352C119.05 93.2517 119.003 91.8954 118.916 89.7274L89.2739 87.8438ZM118.911 89.6385C118.903 89.4366 118.896 89.2283 118.888 89.0135C118.896 89.2283 118.903 89.4388 118.911 89.6385ZM186.839 23.4579C185.951 21.3746 183.896 19.9141 181.494 19.9141C179.092 19.9141 177.034 21.3746 176.147 23.4579C176.257 26.3247 178.605 28.6163 181.494 28.6163C184.382 28.6163 186.73 26.3247 186.839 23.4579ZM186.839 37.2448C185.951 35.1636 183.896 33.701 181.494 33.701C179.092 33.701 177.034 35.1636 176.147 37.2448C176.257 40.1137 178.605 42.4054 181.494 42.4054C184.382 42.4054 186.73 40.1137 186.839 37.2448ZM189.606 13.9766V58.1563H173.241V13.9766H189.606ZM95.7691 58.0803L95.7322 58.0825C95.7322 58.0825 92.3338 65.8798 90.7149 76.3681L94.224 76.5916L95.7691 58.0803ZM118.362 78.1237C117.505 67.2101 114.374 57.2839 114.374 57.2839L114.035 57.2556L115.083 77.9154L118.362 78.1237ZM112.182 77.7309L97.0994 76.7739L98.6815 57.8242L99.0005 57.7982C98.714 62.2665 104.189 69.352 104.189 69.352C104.189 69.352 111.11 61.5525 111.125 56.9952H111.129L112.182 77.7309Z" fill="#52C280"/>
</g>
<mask id="mask8_1_17" style="mask-type:luminance" maskUnits="userSpaceOnUse" x="172" y="15" width="19" height="45">
<path d="M172.837 15.0312H190.754V59.6146H172.837V15.0312Z" fill="white"/>
</mask>
<g mask="url(#mask8_1_17)">
<path d="M145.598 212.047C143.792 211.641 143.59 210.834 143.59 210.834H136.802L137.609 215.884H148.764C148.764 215.884 147.408 212.451 145.598 212.047ZM92.9437 95.5629C92.6095 95.5412 92.2796 95.4913 91.9541 95.4175C91.8781 95.5043 91.8043 95.5911 91.7327 95.6866L70.9732 210.834H71.711C69.9619 212.722 70.2332 211.652 66.9931 211.845C63.5665 212.047 61.2488 215.884 61.2488 215.884H77.7483L78.751 210.834H80.9037C80.9037 210.834 90.9124 194.673 92.4011 180.938C93.892 167.201 90.6433 161.344 94.7058 151.648C97.1168 145.893 101.563 133.951 104.921 121.22L96.2878 95.8016L92.9437 95.5629ZM103.083 95.9557C103.228 93.7465 103.36 91.5352 103.473 89.3238L103.794 82.6875L104.055 76.049C104.133 73.8355 104.196 71.622 104.246 69.4084C104.246 69.3607 104.209 69.3216 104.163 69.3194C104.116 69.3151 104.074 69.352 104.072 69.3997C103.925 71.6111 103.788 73.8203 103.673 76.0317L103.343 82.668L103.074 89.3064C102.994 91.52 102.928 93.7335 102.879 95.947C102.876 96.0035 102.918 96.049 102.974 96.0534C103.03 96.0577 103.08 96.0143 103.083 95.9557ZM187.397 23.434C187.418 22.6593 187.288 21.8759 187.008 21.1445C186.722 20.4154 186.288 19.7426 185.741 19.1762C184.649 18.0369 183.076 17.3837 181.494 17.3772C179.91 17.3793 178.336 18.0325 177.238 19.1697C176.691 19.7361 176.255 20.4088 175.969 21.1402C175.687 21.8715 175.554 22.6571 175.574 23.434C175.576 23.4883 175.619 23.5317 175.674 23.5338C175.73 23.536 175.778 23.4904 175.778 23.434C175.823 21.9323 176.466 20.4805 177.523 19.454C178.573 18.421 180.025 17.8199 181.494 17.8307C182.963 17.8134 184.415 18.4145 185.472 19.4453C186.531 20.474 187.18 21.9258 187.225 23.434C187.225 23.4796 187.262 23.5165 187.308 23.5165C187.356 23.5187 187.397 23.4818 187.397 23.434ZM181.494 28.6163C184.382 28.6163 186.731 26.3246 186.839 23.4579C185.951 21.3746 183.896 19.9141 181.494 19.9141C179.092 19.9141 177.034 21.3746 176.147 23.4579C176.257 26.3246 178.606 28.6163 181.494 28.6163ZM187.397 37.2231C187.418 36.4483 187.288 35.6649 187.008 34.9336C186.722 34.2044 186.288 33.5317 185.741 32.9653C184.649 31.8281 183.076 31.1727 181.494 31.1662C179.91 31.1684 178.336 31.8216 177.238 32.9588C176.691 33.5252 176.255 34.1979 175.969 34.9271C175.687 35.6606 175.554 36.4462 175.574 37.2231C175.576 37.2752 175.619 37.3207 175.674 37.3207C175.73 37.3229 175.778 37.2795 175.778 37.2231C175.823 35.7192 176.466 34.2695 177.523 33.2431C178.573 32.2079 180.025 31.6068 181.494 31.6198C182.963 31.6024 184.415 32.2057 185.472 33.2365C186.531 34.263 187.18 35.717 187.225 37.2231C187.225 37.2687 187.262 37.3056 187.308 37.3056C187.356 37.3077 187.397 37.2708 187.397 37.2231ZM181.494 42.4054C184.382 42.4054 186.731 40.1137 186.839 37.2448C185.951 35.1636 183.896 33.7009 181.494 33.7009C179.092 33.7009 177.034 35.1636 176.147 37.2448C176.257 40.1137 178.606 42.4054 181.494 42.4054ZM187.397 51.01C187.418 50.2374 187.288 49.454 187.008 48.7227C186.722 47.9935 186.288 47.3207 185.741 46.7543C184.649 45.615 183.076 44.9618 181.494 44.9575C179.91 44.9575 178.336 45.6107 177.238 46.7478C176.691 47.3142 176.255 47.987 175.969 48.7183C175.687 49.4496 175.554 50.2352 175.574 51.01C175.576 51.0664 175.619 51.1098 175.674 51.112C175.73 51.1141 175.778 51.0686 175.778 51.01C175.823 49.5104 176.466 48.0586 177.523 47.0321C178.573 45.9991 180.025 45.3958 181.494 45.4088C182.963 45.3915 184.415 45.9926 185.472 47.0234C186.531 48.0521 187.18 49.5061 187.225 51.01C187.225 51.0577 187.262 51.0946 187.308 51.0968C187.356 51.0968 187.397 51.0577 187.397 51.01ZM186.839 51.0338C185.951 48.9527 183.896 47.4922 181.494 47.4922C179.092 47.4922 177.034 48.9527 176.147 51.0338C176.257 53.9028 178.606 56.1944 181.494 56.1944C184.382 56.1944 186.731 53.9028 186.839 51.0338ZM189.71 60.8537H173.278C172.336 60.8537 171.572 60.0898 171.572 59.148V12.4922C171.572 11.5482 172.336 10.7843 173.278 10.7843H179.413V0.973083H183.575V10.7843H189.71C190.652 10.7843 191.416 11.5482 191.416 12.4922V59.148C191.416 60.0898 190.652 60.8537 189.71 60.8537ZM91.2336 60.411C90.9471 59.8142 90.6108 59.2457 90.2028 58.7292C90.1789 58.6944 90.1312 58.6836 90.0943 58.7053C90.0509 58.7292 90.0357 58.7812 90.0574 58.8225C90.3655 59.3932 90.6477 59.9705 90.8842 60.5673C91.1207 61.1597 91.3312 61.763 91.4788 62.3858C91.6481 63.0022 91.7588 63.6337 91.8369 64.2674C91.9172 64.901 91.9476 65.5434 91.9562 66.1901C91.9562 66.24 91.9931 66.2834 92.0431 66.2921C92.0995 66.3008 92.1516 66.2617 92.1602 66.2053C92.2601 65.5542 92.2774 64.8902 92.2362 64.2305C92.1928 63.5686 92.0756 62.9132 91.9172 62.273C91.7392 61.635 91.5222 61.0056 91.2336 60.411ZM121.286 59.2261C121.32 59.1936 121.327 59.1393 121.303 59.1003C121.273 59.0503 121.21 59.033 121.162 59.0634C120.763 59.3042 120.407 59.6102 120.083 59.9488C119.76 60.2873 119.482 60.6671 119.241 61.0686C119.005 61.4744 118.805 61.9019 118.668 62.3511C118.527 62.796 118.434 63.2561 118.412 63.7205C118.412 63.7595 118.436 63.7964 118.475 63.8095C118.521 63.8203 118.569 63.7943 118.584 63.7487C118.71 63.3147 118.853 62.8915 119.027 62.4813C119.205 62.0755 119.398 61.6784 119.628 61.3008C119.853 60.921 120.112 60.5608 120.385 60.2135C120.661 59.8685 120.967 59.543 121.286 59.2261ZM119.005 72.0495C118.94 71.5916 118.89 71.1315 118.833 70.6714L118.692 69.2825C118.688 69.2348 118.651 69.1957 118.601 69.1892C118.545 69.1849 118.493 69.2261 118.488 69.2825C118.434 69.7513 118.423 70.2266 118.436 70.6996C118.445 71.1727 118.493 71.6437 118.558 72.1124C118.629 72.579 118.718 73.0456 118.842 73.5013C118.964 73.9592 119.105 74.4106 119.291 74.8468C119.307 74.8837 119.346 74.9054 119.387 74.8989C119.435 74.8902 119.465 74.8446 119.456 74.7969L119.215 73.421C119.142 72.9631 119.066 72.5074 119.005 72.0495ZM140.216 209.122C141.093 209.113 141.967 209.115 142.842 209.096C143.718 209.076 144.593 209.053 145.468 208.998C145.517 208.996 145.561 208.955 145.563 208.901C145.567 208.844 145.524 208.796 145.468 208.794C144.593 208.738 143.718 208.716 142.842 208.694C141.967 208.677 141.093 208.679 140.216 208.668C139.341 208.681 138.467 208.681 137.592 208.705C136.715 208.727 135.841 208.755 134.966 208.809C134.921 208.814 134.886 208.846 134.884 208.892C134.882 208.94 134.918 208.979 134.966 208.983C135.841 209.037 136.715 209.066 137.592 209.087C138.467 209.111 139.341 209.109 140.216 209.122ZM120.698 164.732C120.624 164.695 120.543 164.662 120.448 164.651C120.437 164.649 120.422 164.649 120.409 164.654C120.353 164.669 120.32 164.725 120.333 164.782C120.359 164.877 120.4 164.949 120.446 165.018C120.489 165.092 120.548 165.148 120.604 165.205C120.665 165.257 120.728 165.307 120.802 165.344C120.876 165.383 120.951 165.418 121.047 165.428C121.062 165.431 121.08 165.431 121.095 165.426C121.162 165.409 121.201 165.342 121.182 165.274C121.158 165.181 121.114 165.109 121.066 165.042C121.019 164.973 120.962 164.918 120.902 164.862C120.839 164.814 120.774 164.766 120.698 164.732ZM126.37 157.288C126.323 157.284 126.281 157.321 126.277 157.368C126.21 158.093 126.134 158.814 126.019 159.528C125.904 160.242 125.771 160.951 125.585 161.65C125.42 162.353 125.207 163.046 124.973 163.729C124.741 164.413 124.471 165.086 124.189 165.758C124.17 165.804 124.187 165.858 124.233 165.886C124.28 165.914 124.343 165.899 124.374 165.852C124.754 165.22 125.073 164.554 125.348 163.868C125.622 163.182 125.839 162.477 126.023 161.761C126.188 161.038 126.325 160.313 126.396 159.578C126.468 158.844 126.496 158.104 126.448 157.371C126.446 157.327 126.414 157.293 126.37 157.288ZM151.828 69.6211C151.913 69.7122 151.997 69.8034 152.106 69.8793C152.13 69.8945 152.158 69.9032 152.188 69.901C152.249 69.8902 152.29 69.8338 152.282 69.773C152.262 69.6385 152.214 69.5169 152.16 69.3997C152.108 69.2825 152.039 69.1762 151.963 69.072C151.887 68.97 151.804 68.8702 151.705 68.7878C151.609 68.701 151.509 68.6207 151.386 68.5599C151.364 68.5512 151.34 68.549 151.316 68.5556C151.266 68.5686 151.238 68.6228 151.253 68.6727C151.292 68.8029 151.349 68.9136 151.407 69.0221C151.461 69.1371 151.531 69.2348 151.6 69.3368C151.67 69.4345 151.741 69.5343 151.828 69.6211ZM152.781 71.1554L152.779 71.1575C152.479 71.3984 152.056 71.4049 151.65 71.3594C151.236 71.3203 150.826 71.2487 150.424 71.138C149.621 70.9253 148.853 70.5868 148.169 70.1224C147.473 69.6732 146.876 69.0829 146.368 68.4253C145.865 67.7613 145.47 67.0126 145.188 66.214C145.175 66.1749 145.131 66.1489 145.088 66.1575C145.042 66.1684 145.012 66.214 145.023 66.2617C145.203 67.1102 145.563 67.9219 146.058 68.6467C146.553 69.3715 147.191 69.9987 147.918 70.4978C148.653 70.9796 149.471 71.342 150.331 71.5286C150.758 71.6198 151.195 71.6762 151.631 71.6892C152.056 71.6957 152.573 71.6675 152.92 71.3051C152.955 71.2682 152.959 71.2096 152.926 71.1706C152.889 71.125 152.824 71.1185 152.781 71.1554ZM136.077 71.6263C136.123 71.6523 136.182 71.6393 136.208 71.5937L136.399 71.2921C136.464 71.1988 136.52 71.1076 136.585 71.0208C136.648 70.9297 136.715 70.8472 136.783 70.7561C136.85 70.6671 136.924 70.5825 137 70.4805L137.004 70.474C137.019 70.4523 137.028 70.424 137.024 70.3958C137.017 70.3351 136.963 70.2917 136.9 70.3003C136.757 70.3177 136.629 70.3806 136.514 70.4609C136.392 70.5391 136.294 70.6454 136.214 70.7604C136.138 70.8798 136.073 71.01 136.045 71.1467C136.012 71.2856 136.001 71.4288 136.036 71.5699C136.043 71.5916 136.056 71.6133 136.077 71.6263ZM139.04 70.7604C138.013 71.52 137.282 72.6593 137.043 73.8941C137.037 73.9375 137.06 73.9809 137.106 73.9939C137.149 74.0069 137.199 73.9809 137.21 73.9353C137.562 72.7786 138.295 71.7543 139.274 71.0903C139.754 70.7496 140.311 70.5195 140.876 70.2591C141.435 69.9987 142.019 69.684 142.46 69.1784C142.52 69.1089 142.536 69.0026 142.484 68.918C142.421 68.8138 142.286 68.7812 142.182 68.8442C141.477 69.2782 140.624 69.4475 139.773 69.5278C139.343 69.5733 138.916 69.5625 138.464 69.5972C138.024 69.6319 137.527 69.7296 137.178 70.066C137.141 70.105 137.134 70.1615 137.167 70.2049C137.201 70.2483 137.269 70.2591 137.312 70.2222C137.636 69.9748 138.057 69.9119 138.48 69.9075C138.903 69.9097 139.352 69.9292 139.797 69.9054C140.131 69.8924 140.472 69.862 140.808 69.799C140.767 69.8207 140.726 69.8424 140.685 69.862C140.142 70.1267 139.558 70.3763 139.04 70.7604ZM92.9437 39.4583C93.382 39.4323 93.777 39.2522 94.1394 39.0503C94.4996 38.8377 94.8447 38.6011 95.1529 38.3255C95.1898 38.2886 95.218 38.2409 95.2245 38.1888C95.27 37.7721 95.3352 37.3576 95.3916 36.941C95.448 36.5243 95.5088 36.1098 95.576 35.6953L95.5782 35.6823C95.5934 35.589 95.5391 35.4978 95.448 35.4674C94.836 35.2721 94.2045 35.1332 93.5665 35.1007C93.5253 35.0985 93.4884 35.1246 93.4775 35.1658C93.4645 35.2114 93.4927 35.2591 93.5383 35.2721C94.0895 35.4154 94.6277 35.5846 95.1464 35.7908C95.0769 36.151 95.0096 36.5113 94.951 36.8759C94.8903 37.2687 94.8469 37.6636 94.8078 38.0586C94.5344 38.3038 94.2566 38.5469 93.9528 38.7509C93.6294 38.9657 93.2909 39.1719 92.9198 39.2522L92.9154 39.2543C92.8677 39.2652 92.833 39.3108 92.8352 39.3607C92.8373 39.4171 92.8872 39.4605 92.9437 39.4583ZM113.549 49.2565C113.547 48.8246 113.456 48.3993 113.28 48.0152C113.052 47.4944 112.664 47.0755 112.184 46.7565C111.974 46.6068 111.744 46.4722 111.507 46.3463C112.03 46.9041 112.442 47.5421 112.575 48.2865C112.622 48.5577 113.02 48.8767 113.549 49.2565ZM117.516 52.9306C117.777 53.3646 117.996 53.829 118.139 54.3129C118.154 54.3607 118.128 54.4084 118.08 54.4214C118.041 54.4345 118 54.4149 117.981 54.3802C117.737 53.9505 117.484 53.5339 117.197 53.1432C117.065 52.9609 116.926 52.7852 116.783 52.6137C117.037 53.3472 117.51 54.0221 117.416 54.7925C116.648 55.27 115.626 55.4414 114.723 55.4154C114.454 54.6428 114.044 54.0503 113.451 53.4861C113.994 54.2522 114.215 55.0638 114.213 55.9991C113.61 56.2183 112.976 56.2248 112.336 56.1814C111.876 55.3633 111.24 54.645 110.485 54.0894C110.485 54.4583 111.03 55.3589 111.03 55.73C110.409 56.1684 108.597 56.0642 107.855 55.9145C107.479 55.3264 107.275 54.6124 106.661 54.2825C106.83 54.6016 107.267 55.5456 107.434 55.8646C107.06 56.3138 106.249 55.8885 105.704 56.099C104.76 55.7778 104.298 54.5929 103.894 53.6771C103.729 53.2995 103.386 53.0282 103.026 52.8286C102.688 52.6398 102.325 52.4944 101.993 52.2882C102.104 52.477 102.221 52.6615 102.364 52.8264C102.729 53.2821 103.247 53.6923 103.59 54.2565C103.935 54.8099 104.159 55.4067 104.35 56.0013C104.367 56.0534 104.339 56.112 104.283 56.1293C104.235 56.1445 104.183 56.1228 104.159 56.0794C103.87 55.5282 103.608 54.9661 103.258 54.4822C102.924 53.9939 102.447 53.6163 102.017 53.115C101.616 52.6072 101.344 52.0169 101.182 51.4136C100.843 50.8233 100.648 50.1007 100.455 49.4692C100.034 48.1107 99.2913 46.852 98.2996 45.832C98.1129 45.6389 97.9176 45.4523 97.7201 45.2656C97.8417 45.4371 97.9675 45.602 98.1042 45.7604C98.3712 46.0773 98.6641 46.3941 98.9007 46.776C99.3651 47.5681 99.4454 48.4579 99.5691 49.2695C99.6928 50.0746 99.8946 50.8971 100.476 51.457C100.52 51.4961 100.52 51.5612 100.483 51.6024C100.446 51.6393 100.389 51.6458 100.348 51.6154C99.9858 51.3572 99.7297 50.9731 99.5452 50.5803C99.3694 50.1788 99.2588 49.7556 99.1763 49.339C99.0114 48.51 98.9267 47.6745 98.5144 47.0082C98.3191 46.6719 98.0457 46.3637 97.7787 46.0338C97.5096 45.6996 97.2557 45.3416 97.0648 44.9553C96.9432 44.7209 96.8412 44.4779 96.7523 44.2326C96.7197 44.1871 96.6806 44.1458 96.6503 44.1024C96.188 43.4514 95.8343 42.6593 96.1294 41.9171L107.972 42.7678C108.573 43.7812 109.441 44.5994 110.363 45.3307C110.509 45.4023 110.654 45.474 110.802 45.5412C111.344 45.7886 111.909 46.0382 112.44 46.3832C112.957 46.7435 113.428 47.247 113.647 47.8611C113.84 48.3624 113.888 48.9115 113.792 49.4279C114.432 49.8815 115.207 50.411 115.817 51.0425C116.086 51.2509 116.349 51.4744 116.587 51.7196C116.937 52.0907 117.256 52.4922 117.516 52.9306ZM85.7713 55.4219C85.8191 55.424 85.8582 55.385 85.8603 55.3372V55.3351C85.8755 54.9336 86.1034 54.5799 86.3963 54.3325C86.5005 54.25 86.6134 54.1762 86.7306 54.1089C86.3877 54.5126 86.2119 55.0638 86.2878 55.589C86.2922 55.5933 86.2965 55.5977 86.303 55.602C86.2965 55.691 86.29 55.7778 86.29 55.8689C86.2987 56.1337 86.3356 56.3963 86.4137 56.6502C86.4897 56.9019 86.5938 57.1471 86.7479 57.362C86.7718 57.3945 86.813 57.4119 86.8542 57.4032C86.9107 57.3902 86.9476 57.3359 86.9367 57.2795C86.8868 57.0343 86.8369 56.8021 86.8043 56.5634C86.7826 56.3746 86.7631 56.1836 86.7523 55.9948C88.5166 57.4401 90.8864 58.102 93.0999 57.5443C93.1042 57.0885 93.2475 56.7044 93.4623 56.3051C93.4428 56.8802 93.6598 57.4097 94.0526 57.8286C95.9167 58.1823 97.8786 58.0738 99.7123 57.5833C99.632 57.2296 99.4541 56.8542 99.3716 56.5004C99.5821 56.6936 99.7861 56.8455 100.005 56.9757C99.8729 56.4635 99.6928 55.8277 99.5192 55.3568C99.172 54.4301 97.6659 54.5234 97.6659 54.5234C96.2444 54.6623 95.0444 54.7166 94.4562 54.7166C92.655 54.7166 92.9567 53.0608 92.9567 53.0608L92.9371 52.4423C92.9371 52.4401 92.6919 51.8325 92.5921 51.6849C92.5183 51.5764 92.7158 51.1749 92.8243 50.9709C93.0153 51.01 93.2084 51.0295 93.4016 51.0447C93.6229 51.0621 93.8443 51.0621 94.0635 51.0599C94.2826 51.0512 94.5018 51.0447 94.7232 51.0143C94.9424 50.9883 95.1615 50.9579 95.3807 50.8971C95.4176 50.8885 95.448 50.8581 95.4567 50.8168C95.4654 50.7604 95.4306 50.704 95.372 50.691C95.1507 50.6454 94.9315 50.628 94.7123 50.615C94.491 50.5977 94.2696 50.602 94.0504 50.6063C93.8291 50.6172 93.6099 50.628 93.3907 50.6628C93.1997 50.6866 93.0088 50.7192 92.8178 50.7648C92.7332 50.6649 92.5943 50.487 92.4901 50.2678C92.3404 49.9379 92.8482 49.326 92.8482 49.326C92.8482 49.326 91.3334 48.7791 91.0817 48.2734C90.958 48.026 91.4354 47.7548 91.9823 47.0864C92.5552 46.3854 92.7527 45.9991 92.7527 45.9991L92.6811 43.4601C92.6811 42.6246 92.833 41.8303 93.0912 41.0859C94.2197 41.2161 95.3525 41.3268 96.481 41.4332L100.322 41.763L104.168 42.0321C105.45 42.1102 106.735 42.184 108.02 42.2274C108.072 42.2296 108.119 42.1905 108.124 42.1385C108.13 42.0799 108.089 42.0299 108.035 42.0234C106.757 41.8715 105.478 41.75 104.198 41.6306L100.357 41.3116L96.5114 41.0534C95.3959 40.9883 94.2805 40.9297 93.1628 40.8841C93.1867 40.8255 93.2041 40.7604 93.2301 40.6996C93.1238 40.7474 93.0261 40.8082 92.9306 40.8754C92.8417 40.8733 92.7505 40.8667 92.6594 40.8646C92.6138 40.8624 92.5747 40.895 92.5704 40.9405C92.5661 40.9883 92.5986 41.0295 92.6464 41.036C92.6702 41.0382 92.6941 41.0425 92.718 41.0447C92.3469 41.3832 92.0734 41.8498 91.9194 42.3381C91.6806 43.0955 91.6698 43.9028 91.596 44.6949C91.5635 45.0508 91.5135 45.411 91.4267 45.7604C91.3378 46.0165 91.2227 46.2595 91.0665 46.4744C90.5847 47.1645 89.6928 47.3989 88.892 47.9067C88.0739 48.4319 87.5595 49.4193 87.629 50.3937C87.6594 50.8711 87.7787 51.3073 87.7939 51.7305C87.8135 52.1471 87.718 52.5877 87.4141 52.8611L87.412 52.8633C87.3729 52.8958 87.3664 52.9544 87.3946 52.9978C87.425 53.0434 87.4901 53.0564 87.5378 53.0239C87.9632 52.7309 88.1042 52.197 88.1238 51.7305C88.1303 51.2509 88.0326 50.8016 88.0283 50.3785C88.0066 49.5451 88.4341 48.7227 89.1437 48.2821C89.4628 48.0651 89.8273 47.8915 90.1963 47.6897C89.4996 48.2821 88.701 48.7899 88.484 49.6536C88.3365 50.2417 88.5036 50.8559 88.586 51.457C88.6533 51.9193 88.6446 52.4336 88.4385 52.8351C88.0977 53.0391 87.7071 53.1823 87.3035 53.3429C86.902 53.51 86.4723 53.7075 86.1381 54.0503C85.8061 54.3889 85.5804 54.8815 85.6889 55.3546C85.6976 55.3937 85.7323 55.4219 85.7713 55.4219ZM155.175 44.4757C155.14 44.4453 155.092 44.4301 155.049 44.4258H154.801L153.718 44.441C153.632 44.4366 153.547 44.4952 153.523 44.5799C153.517 44.6016 153.514 44.6124 153.512 44.6515L153.51 44.7882L153.508 45.0595C153.501 45.4197 153.504 45.7843 153.488 46.1445C153.48 46.3572 153.462 46.444 153.547 46.5265C153.584 46.5655 153.634 46.5916 153.688 46.6003C153.742 46.6089 153.859 46.6089 153.942 46.6133C154.302 46.6371 154.662 46.648 155.025 46.6784V46.6632C155.164 46.6567 155.283 46.5525 155.309 46.4266C155.322 46.3767 155.311 46.2878 155.309 46.1923L155.298 45.921L155.261 44.8338C155.255 44.7556 155.257 44.6254 155.248 44.5972C155.237 44.5495 155.211 44.5061 155.175 44.4757ZM155.094 44.0091C155.229 44.0221 155.359 44.0872 155.452 44.1806C155.548 44.2739 155.611 44.3976 155.63 44.5299C155.645 44.6819 155.63 44.7318 155.632 44.8338L155.593 45.921L155.583 46.1923L155.578 46.329C155.574 46.3767 155.57 46.444 155.55 46.4961C155.478 46.724 155.251 46.878 155.025 46.8694V46.852C154.662 46.8824 154.302 46.8976 153.942 46.9193C153.842 46.9214 153.777 46.9279 153.651 46.9258C153.527 46.9149 153.404 46.8628 153.31 46.776C153.215 46.6936 153.148 46.5742 153.124 46.4483C153.102 46.2986 153.113 46.2465 153.104 46.1445C153.089 45.7843 153.089 45.4197 153.085 45.0595L153.08 44.7882L153.078 44.6515C153.078 44.5994 153.083 44.5191 153.102 44.4562C153.174 44.1871 153.436 43.9852 153.718 43.9874L154.801 44.0004C154.901 44.0026 154.958 43.9983 155.094 44.0091ZM152.29 44.1089C152.078 44.0547 151.867 44.0308 151.655 44.0113C151.442 43.9896 151.231 43.9874 151.019 43.9852C150.808 43.9917 150.596 43.9939 150.385 44.02C150.172 44.0438 149.96 44.0699 149.749 44.1263C149.719 44.1328 149.693 44.1567 149.684 44.1892C149.673 44.237 149.701 44.2869 149.749 44.2999C149.96 44.3542 150.172 44.3802 150.385 44.4041C150.567 44.4258 150.75 44.4323 150.932 44.4366C150.906 44.5755 150.886 44.7144 150.873 44.8511C150.845 45.0638 150.841 45.2765 150.836 45.4891C150.836 45.7018 150.841 45.9145 150.865 46.1272C150.884 46.3398 150.906 46.5525 150.96 46.7652C150.971 46.8021 150.999 46.8325 151.036 46.8433C151.095 46.8585 151.151 46.8216 151.166 46.7652C151.218 46.5525 151.244 46.3398 151.264 46.1272C151.286 45.9145 151.288 45.7018 151.288 45.4891C151.286 45.2765 151.279 45.0638 151.255 44.8511C151.24 44.7144 151.218 44.5755 151.195 44.4366C151.349 44.4345 151.501 44.4279 151.655 44.4128C151.867 44.3932 152.078 44.3694 152.29 44.3151C152.325 44.3042 152.356 44.2782 152.366 44.2391C152.382 44.1827 152.347 44.1241 152.29 44.1089ZM156.563 44.2782C156.609 44.4692 156.635 44.6602 156.657 44.8511C156.672 44.9792 156.676 45.1094 156.683 45.2374C157.026 45.2222 157.369 45.2049 157.709 45.1983L158.02 45.1918C158.085 45.1897 158.148 45.1723 158.202 45.1376C158.317 45.0746 158.393 44.9466 158.393 44.8142C158.397 44.684 158.332 44.5473 158.213 44.4757C158.156 44.4366 158.089 44.4128 158.02 44.4062L157.735 44.3889C157.366 44.3694 156.982 44.3194 156.563 44.2782ZM156.264 46.1272C156.242 45.9145 156.238 45.7018 156.238 45.4891C156.242 45.2765 156.247 45.0638 156.273 44.8511C156.294 44.6385 156.323 44.4258 156.379 44.2131C156.381 44.2088 156.383 44.2066 156.388 44.2023C156.39 44.1849 156.39 44.1697 156.39 44.1545L156.403 44.1523C156.8 44.1111 157.234 44.059 157.685 44.0395L158.024 44.0221C158.161 44.02 158.302 44.0503 158.421 44.1198C158.666 44.2543 158.831 44.5299 158.833 44.8142C158.838 45.1007 158.682 45.3828 158.432 45.5282C158.31 45.602 158.165 45.6389 158.024 45.6411L157.709 45.6345C157.371 45.628 157.028 45.6128 156.687 45.5955C156.685 45.7734 156.683 45.9514 156.665 46.1272C156.644 46.3398 156.62 46.5525 156.568 46.7652C156.553 46.8216 156.494 46.8585 156.438 46.8433C156.399 46.8325 156.37 46.8021 156.362 46.7652C156.307 46.5525 156.286 46.3398 156.264 46.1272ZM148.816 45.3828C148.506 45.3047 148.232 45.296 148.02 45.1983C147.798 45.1029 147.679 44.951 147.698 44.76C147.72 44.5603 147.887 44.3542 148.109 44.2739C148.336 44.1762 148.614 44.1762 148.89 44.1936C148.929 44.1957 148.968 44.1697 148.979 44.1285C148.992 44.0829 148.966 44.0352 148.918 44.0221C148.64 43.9462 148.33 43.9049 148.013 43.9831C147.694 44.0699 147.401 44.3303 147.323 44.6949C147.277 44.8772 147.319 45.0942 147.432 45.2504C147.542 45.411 147.694 45.513 147.842 45.5846C148.15 45.73 148.458 45.7474 148.695 45.8212C148.814 45.8537 148.925 45.8993 148.994 45.9557C149.072 46.0187 149.133 46.1076 149.152 46.1879C149.172 46.2704 149.157 46.3268 149.107 46.3832C149.055 46.4353 148.953 46.4852 148.833 46.5178C148.33 46.6371 147.77 46.6046 147.254 46.4266C147.208 46.4115 147.154 46.431 147.13 46.4722C147.102 46.5221 147.119 46.5872 147.169 46.6154C147.688 46.9062 148.308 47.0126 148.92 46.9084C149.076 46.878 149.252 46.8303 149.404 46.6827C149.563 46.5395 149.626 46.2812 149.573 46.0881C149.489 45.6975 149.12 45.4566 148.816 45.3828ZM93.8269 52.0148C93.7835 51.9952 93.7444 51.9931 93.701 51.9887C93.662 51.9931 93.6207 51.9931 93.5752 52.0126C93.5296 52.0278 93.4819 52.043 93.4233 52.0842L93.4146 52.0907C93.3647 52.1254 93.3473 52.197 93.3777 52.2535C93.4124 52.3207 93.4623 52.3598 93.5144 52.3902C93.5665 52.4249 93.6251 52.4358 93.6815 52.4423C93.7401 52.4444 93.7987 52.4401 93.8529 52.4141C93.9115 52.3902 93.9636 52.3598 94.007 52.2947C94.0483 52.2361 94.0374 52.1493 93.9788 52.1016L93.968 52.095C93.9159 52.0495 93.8703 52.0321 93.8269 52.0148ZM95.2896 43.7986L95.3048 43.8095C95.3286 43.8268 95.3612 43.8333 95.3959 43.8225C95.4502 43.8051 95.4806 43.7465 95.4632 43.6901C95.4089 43.5165 95.3004 43.3472 95.1442 43.2279C94.9944 43.1042 94.8078 43.0304 94.6233 42.9957C94.4367 42.9674 94.2523 42.9674 94.0765 43.0065C93.9007 43.0456 93.7358 43.1042 93.5839 43.2105C93.5621 43.2257 93.547 43.2496 93.547 43.2778C93.5426 43.3277 93.5817 43.3711 93.6316 43.3733H93.6403C93.8009 43.3798 93.9593 43.3798 94.109 43.3885C94.2588 43.4036 94.4042 43.4123 94.5409 43.4405C94.6776 43.4644 94.8013 43.51 94.9272 43.5642C95.053 43.6163 95.1594 43.7075 95.2896 43.7986ZM94.1698 45.2938C94.1698 45.5998 94.3174 45.8494 94.4996 45.8494C94.6819 45.8494 94.8273 45.5998 94.8273 45.2938C94.8273 44.9857 94.6819 44.7361 94.4996 44.7361C94.3174 44.7361 94.1698 44.9857 94.1698 45.2938ZM159.309 42.6332L155.4 38.7183H149.873L145.964 42.6332V48.1736L149.873 52.0907H155.4L159.309 48.1736V42.6332ZM156.444 36.1923L161.828 41.5872V49.2196L156.444 54.6167H154.005V59.7817C154.137 59.7079 154.27 59.6319 154.398 59.5538C154.502 59.4909 154.604 59.4214 154.704 59.3563C154.699 59.3216 154.691 59.2825 154.686 59.2478C154.669 59.1306 154.671 59.0135 154.673 58.8963C154.682 58.7791 154.693 58.6619 154.723 58.5469C154.749 58.4319 154.782 58.3168 154.843 58.2062C154.866 58.1606 154.923 58.1432 154.968 58.1671C154.988 58.1779 155.001 58.1931 155.007 58.2127L155.014 58.2235C155.064 58.3429 155.086 58.4579 155.103 58.5729C155.125 58.6879 155.127 58.8008 155.127 58.9136C155.122 58.9744 155.12 59.0352 155.112 59.0959L155.804 58.6228C155.849 58.5903 155.915 58.6033 155.947 58.651C155.973 58.6879 155.969 58.7357 155.945 58.7704C155.776 59.0135 155.567 59.224 155.346 59.4193C155.127 59.6189 154.882 59.786 154.63 59.9401C154.428 60.0573 154.22 60.1615 154.005 60.2483V60.3177L152.143 60.9492C151.906 61.0295 151.748 61.2509 151.748 61.4983C151.748 61.8194 152.008 62.0799 152.327 62.0799H152.475C152.486 62.0668 152.499 62.056 152.516 62.0538C152.928 61.9475 153.341 61.8498 153.747 61.7348C154.15 61.6198 154.554 61.5026 154.951 61.3681C155.35 61.24 155.745 61.0924 156.14 60.947C156.533 60.7995 156.924 60.6345 157.323 60.4826C157.377 60.4609 157.436 60.4891 157.458 60.5412C157.475 60.5868 157.458 60.6367 157.421 60.6628C157.067 60.9145 156.687 61.1272 156.299 61.316C155.91 61.5069 155.502 61.6632 155.092 61.7999C154.678 61.9279 154.257 62.0386 153.829 62.1081C153.402 62.1797 152.97 62.2274 152.536 62.2253C152.497 62.2253 152.466 62.1927 152.458 62.1558L152.117 62.3273C151.891 62.4423 151.748 62.6766 151.748 62.9306C151.748 63.2886 152.028 63.5794 152.379 63.6011L153.46 63.3559C153.862 63.2539 154.263 63.1562 154.66 63.0456C155.057 62.9371 155.45 62.8155 155.845 62.6962L157.037 62.3229C157.091 62.3056 157.147 62.3359 157.165 62.3902C157.18 62.4379 157.158 62.4857 157.119 62.5095C156.757 62.7309 156.372 62.9132 155.982 63.0738C155.591 63.2387 155.188 63.3689 154.777 63.4818C154.367 63.5881 153.953 63.6792 153.532 63.7313C153.111 63.7856 152.688 63.8203 152.264 63.8029C152.234 63.8029 152.212 63.7856 152.197 63.7617L152.004 63.842C151.848 63.9071 151.748 64.059 151.748 64.2261V64.4258C151.748 64.6319 151.904 64.8099 152.11 64.8359L153.141 64.9683C153.141 64.9596 153.135 64.951 153.137 64.9401C153.145 64.8967 153.18 64.862 153.221 64.8576C153.527 64.8077 153.825 64.7665 154.118 64.7036C154.411 64.6406 154.701 64.5712 154.984 64.4822C155.27 64.3997 155.55 64.2934 155.828 64.1871C156.108 64.0742 156.381 63.9462 156.661 63.8138C156.705 63.7921 156.757 63.8116 156.778 63.8572C156.793 63.8898 156.785 63.9288 156.761 63.9549C156.535 64.1827 156.275 64.3694 155.997 64.5299C155.721 64.6927 155.422 64.8164 155.116 64.9162C154.81 65.0095 154.493 65.0768 154.174 65.1007C153.927 65.1202 153.679 65.1137 153.434 65.0855L153.195 65.1484L152.664 65.0833C152.434 65.0551 152.228 65.22 152.201 65.4501C152.175 65.6649 152.323 65.8646 152.536 65.9058L153.48 66.0794C153.549 66.0924 153.619 66.0881 153.684 66.0664L154.005 65.9622V67.8155H151.268V59.5473C151.184 59.5386 151.101 59.5343 151.019 59.5299C151.036 60.0877 150.893 60.6454 150.617 61.1228C150.459 61.3984 150.253 61.6415 150.018 61.8498C149.786 62.0625 149.513 62.2231 149.226 62.3316C149.181 62.349 149.131 62.3251 149.113 62.2795C149.1 62.2426 149.116 62.1992 149.148 62.1775C149.387 62.0148 149.593 61.8194 149.78 61.6111C149.966 61.4006 150.116 61.1641 150.244 60.9188C150.494 60.424 150.617 59.8728 150.589 59.326V59.3086C150.58 59.1957 150.667 59.1003 150.78 59.0959C150.789 59.0937 150.8 59.0937 150.81 59.0959C151.336 59.1502 151.809 59.2977 152.29 59.3889C152.347 59.3997 152.384 59.4518 152.373 59.5082C152.371 59.5299 152.358 59.5495 152.343 59.5625C153.176 59.6406 153.881 59.6016 153.653 59.2066C153.241 58.4883 151.967 57.4097 151.268 56.9366V54.6167H148.829L143.445 49.2196V41.5872L148.829 36.1923H156.444ZM193.143 137.701H189.307L189.508 143.76H193.371L193.143 137.701ZM193.916 158.31H189.992L190.214 164.96H194.165L193.916 158.31ZM194.762 180.971H190.75L191.915 215.977H196.073L194.762 180.971ZM120.98 180.971H124.997L123.823 215.977H119.665L120.98 180.971Z" fill="#393A3F"/>
</g>
</svg>
