<svg width="121" height="120" viewBox="0 0 121 120" fill="none" xmlns="http://www.w3.org/2000/svg">
<mask id="mask0_14_2" style="mask-type:luminance" maskUnits="userSpaceOnUse" x="12" y="7" width="98" height="98">
<path d="M12.2449 7.67188H109.245V104.667H12.2449V7.67188Z" fill="white"/>
</mask>
<g mask="url(#mask0_14_2)">
<path d="M65.9324 65.401C66.9115 66.0417 67.8855 66.625 68.7865 67.0938C70.4428 67.9583 72.4688 67.625 73.7605 66.2813L78.5053 61.3594C79.5886 60.2396 81.3022 60.0156 82.6355 60.8177L93.4324 67.3125C94.9584 68.2292 95.8178 69.9427 95.6511 71.7135L95.4272 74.0104C95.1668 76.7083 93.3543 79 90.7865 79.8854L84.8438 81.9271L84.0782 82.1927L83.5261 82.3802C82.2761 82.8073 80.9428 82.9167 79.6459 82.6875C75.0834 81.8906 63.9063 79.1875 54.0678 70.849C52.6303 69.6667 51.224 68.3958 49.8699 67.0365C48.5105 65.6771 47.2397 64.276 46.0522 62.8385C37.7188 53 35.0157 41.8177 34.2188 37.2604C33.9897 35.9583 34.099 34.6302 34.5261 33.3802L34.7136 32.8333L34.974 32.0677L37.0209 26.1146C37.9011 23.5521 40.198 21.7396 42.8959 21.4792L45.1928 21.2552C46.9636 21.0833 48.6772 21.9479 49.5938 23.474L56.0886 34.2708C56.8907 35.6042 56.6615 37.3177 55.5417 38.3958L50.6251 43.1458C49.2813 44.4375 48.948 46.4635 49.8074 48.1198C50.2813 49.0208 50.8647 49.9948 51.5053 50.974C55.2709 56.7188 60.1876 61.6302 65.9324 65.401ZM60.7397 7.67188C33.9584 7.67188 12.2449 29.3854 12.2449 56.1667C12.2501 82.9479 33.9584 104.656 60.7397 104.656C87.5209 104.656 109.229 82.9479 109.229 56.1667C109.229 29.3854 87.5209 7.67188 60.7397 7.67188Z" fill="white"/>
</g>
</svg>
