<svg width="65" height="55" viewBox="0 0 65 55" fill="none" xmlns="http://www.w3.org/2000/svg">
<mask id="mask0_23_2" style="mask-type:luminance" maskUnits="userSpaceOnUse" x="6" y="2" width="50" height="52">
<path d="M6 2.70312H55.7448V54H6V2.70312Z" fill="white"/>
</mask>
<g mask="url(#mask0_23_2)">
<path d="M55.7135 27.7188C55.7135 28.5365 55.6719 29.3542 55.5938 30.1667C55.5156 30.9844 55.401 31.7917 55.2448 32.5938C55.0833 33.401 54.8906 34.1927 54.6563 34.974C54.4271 35.7604 54.1563 36.5313 53.849 37.2865C53.5417 38.0417 53.1979 38.7813 52.8177 39.5052C52.4427 40.224 52.026 40.9271 51.5833 41.6094C51.1354 42.2917 50.6563 42.9479 50.151 43.5781C49.6406 44.2135 49.099 44.8177 48.5313 45.3958C47.9635 45.9792 47.3698 46.526 46.75 47.0469C46.1302 47.5677 45.4844 48.0521 44.8177 48.5052C44.151 48.9635 43.4635 49.3854 42.7552 49.7708C42.0469 50.1563 41.3177 50.5052 40.5781 50.8177C39.8385 51.1302 39.0833 51.4063 38.3125 51.6458C37.5417 51.8802 36.7656 52.0833 35.9792 52.2396C35.1927 52.401 34.3958 52.5208 33.599 52.599C32.7969 52.6823 31.9948 52.724 31.1927 52.724C30.3906 52.724 29.5885 52.6823 28.7917 52.6042C27.9896 52.5208 27.1979 52.401 26.4115 52.2396C25.625 52.0833 24.8437 51.8854 24.0781 51.6458C23.3073 51.4063 22.5521 51.1302 21.8125 50.8177C21.0677 50.5052 20.3438 50.1563 19.6354 49.7708C18.9271 49.3854 18.2396 48.9635 17.5729 48.5104C16.901 48.0521 16.2604 47.5677 15.6354 47.0469C15.0156 46.526 14.4219 45.9792 13.8542 45.401C13.2865 44.8229 12.75 44.2135 12.2396 43.5833C11.7292 42.9479 11.25 42.2917 10.8073 41.6094C10.3594 40.9323 9.94792 40.2292 9.56771 39.5052C9.1875 38.7865 8.84896 38.0469 8.54167 37.2865C8.23437 36.5313 7.96354 35.7604 7.72917 34.9792C7.49479 34.1927 7.30208 33.401 7.14583 32.599C6.98958 31.7969 6.86979 30.9844 6.79167 30.1719C6.71354 29.3542 6.67188 28.5365 6.67188 27.7188C6.67188 26.901 6.71354 26.0833 6.79167 25.2708C6.86979 24.4531 6.98958 23.6458 7.14583 22.8438C7.30208 22.0417 7.49479 21.2448 7.72917 20.4635C7.96354 19.6771 8.23437 18.9063 8.54167 18.151C8.84896 17.3958 9.19271 16.6563 9.56771 15.9323C9.94792 15.2135 10.3594 14.5104 10.8073 13.8281C11.2552 13.151 11.7292 12.4948 12.2396 11.8594C12.75 11.224 13.2865 10.6198 13.8542 10.0417C14.4271 9.46354 15.0208 8.91146 15.6406 8.39583C16.2604 7.875 16.9063 7.38542 17.5729 6.93229C18.2396 6.47917 18.9271 6.05729 19.6354 5.67188C20.3438 5.28646 21.0729 4.9375 21.8125 4.625C22.5521 4.30729 23.3073 4.03646 24.0781 3.79688C24.849 3.55729 25.625 3.35937 26.4115 3.19792C27.1979 3.04167 27.9948 2.92188 28.7917 2.83854C29.5938 2.76042 30.3958 2.71875 31.1979 2.71875C32 2.71875 32.8021 2.75521 33.6042 2.83333C34.401 2.91146 35.1979 3.02604 35.9844 3.1875C36.776 3.34375 37.5521 3.54167 38.3229 3.77604C39.0937 4.01042 39.849 4.28646 40.5938 4.59896C41.3333 4.91146 42.0625 5.26042 42.7708 5.64583C43.4792 6.03125 44.1719 6.45312 44.8385 6.90625C45.5052 7.35937 46.151 7.84896 46.776 8.36458C47.3958 8.88542 47.9896 9.4375 48.5573 10.0156C49.125 10.5937 49.6667 11.2031 50.1771 11.8333C50.6823 12.4687 51.1615 13.125 51.6094 13.8073C52.0521 14.4896 52.4688 15.1927 52.8438 15.9167C53.224 16.6406 53.5625 17.3802 53.8698 18.1354C54.1771 18.8958 54.4479 19.6667 54.6771 20.4531C54.9063 21.2344 55.1042 22.0313 55.2552 22.8333C55.4115 23.6406 55.526 24.4479 55.6042 25.2656C55.6771 26.0781 55.7135 26.8958 55.7135 27.7188Z" fill="#3998FF"/>
</g>
<path d="M50.1094 43.6354C49.5313 44.3489 48.9115 45.0312 48.2604 45.677C47.6042 46.3229 46.9167 46.927 46.1979 47.4947C45.4792 48.0625 44.7292 48.5885 43.9531 49.0729C43.1771 49.5572 42.375 49.9947 41.5469 50.3854C40.724 50.776 39.8802 51.1197 39.0156 51.4166C38.1563 51.7135 37.276 51.9583 36.3906 52.1562C35.5 52.3541 34.6042 52.4947 33.6979 52.5937C32.7917 52.6875 31.8802 52.7291 30.974 52.7187C30.0625 52.7135 29.1563 52.651 28.25 52.5416C27.349 52.4322 26.4531 52.2656 25.5677 52.0572C24.6823 51.8437 23.8073 51.5781 22.9531 51.2656C22.0937 50.9583 21.2552 50.5937 20.4375 50.1875C19.6198 49.7812 18.8281 49.3281 18.0573 48.8333C17.2917 48.3333 16.5521 47.7968 15.8438 47.2135C15.1302 46.6354 14.4583 46.0156 13.8125 45.3593C13.1719 44.6979 12.5677 44.0052 12 43.2812C14.6146 39.4843 18.6615 36.8489 27.1771 36.75C37 36.6302 44.2292 36.2656 47.2135 39.6302C48.3021 40.875 49.2656 42.2083 50.1094 43.6354Z" fill="white"/>
<path d="M23.0729 21.4114C18.3594 19.677 19.125 13.3333 19.7969 13.1979C20.4635 13.0625 21.901 14.1875 21.9687 14.2187C22.0364 14.2552 21.6354 11.3906 22.5364 10.0625C23.4427 8.73433 26.8854 11.427 29.526 11.4583C32.1666 11.4948 38.5521 11.6614 40.4271 13.3698C42.2969 15.0729 41.3281 18.7187 41.3281 18.7187C41.3281 18.7187 43.4687 19.302 43.0312 22.3698C42.5989 25.4375 39.2187 28.0729 38.0156 30.2812C36.8125 32.4948 29.6666 32.901 28.5573 29.6979" fill="#14213D"/>
<path d="M30.8385 40.4427C27.4114 40.4427 26.9062 37.526 26.8906 37.0364C26.8906 36.9791 26.8854 36.8802 26.8906 36.7448C26.8854 36.4739 26.8854 36.0468 26.8854 35.5573C26.901 34.2239 26.9114 32.3854 26.8906 31.5937L33.4375 29.2083L34.625 28.7708L35.9427 28.2916C35.9427 28.2916 35.9375 28.552 35.9218 28.9843C35.9166 29.2291 35.9114 29.5312 35.901 29.875C35.9062 29.9166 35.901 29.9583 35.8958 30C35.8906 30.4948 35.8802 31.0677 35.8698 31.6666C35.8489 33.5468 35.8385 35.6614 35.9375 36.4218C36.1145 37.901 34.2656 40.4427 30.8385 40.4427Z" fill="#FFB5A6"/>
<path d="M35.9531 29.8907C35.9375 29.9271 35.9166 29.9636 35.8958 29.9948C33.5729 34.8646 30.0833 36.7969 26.8906 36.7448C26.8854 36.474 26.8854 36.0469 26.8854 35.5573C26.901 34.224 26.9114 32.3855 26.8906 31.5938L33.4375 29.2084L35.901 29.875L35.9531 29.8907Z" fill="#E86B70"/>
<path d="M22.9427 17.0834C26.7552 21.7448 36.1666 20.9011 36.1666 20.9011C36.1666 20.9011 36.3489 26.3594 37.2812 26.3125C38.2187 26.2657 38.375 23.2448 40.6718 23.7448C42.9687 24.2448 41.5416 28.7657 39.7552 29.0157C37.9739 29.2657 37.526 27.7188 37.526 27.7188C37.526 27.7188 34.2395 34.3698 29.026 34.3698C23.8073 34.3698 22.4739 29.2709 22.5052 26.4948C22.5364 23.7188 22.9427 17.0834 22.9427 17.0834Z" fill="#FFB5A6"/>
</svg>
