<svg width="124" height="119" viewBox="0 0 124 119" fill="none" xmlns="http://www.w3.org/2000/svg">
<mask id="mask0_14_2" style="mask-type:luminance" maskUnits="userSpaceOnUse" x="11" y="6" width="98" height="98">
<path d="M11.9688 6.67188H108.969V103.667H11.9688V6.67188Z" fill="white"/>
</mask>
<g mask="url(#mask0_14_2)">
<path fill-rule="evenodd" clip-rule="evenodd" d="M60.4583 6.67188C87.2396 6.67188 108.953 28.3854 108.953 55.1667C108.953 81.9479 87.2396 103.656 60.4583 103.656C33.6771 103.656 11.9688 81.9479 11.9688 55.1667C11.9688 28.3854 33.6771 6.67188 60.4583 6.67188ZM89.3177 75.3958C89.5729 75.3958 89.8177 75.3438 90.0521 75.2448C90.2865 75.151 90.4948 75.0104 90.6771 74.8281C90.8542 74.651 90.9948 74.4427 91.0938 74.2083C91.1927 73.9688 91.2396 73.724 91.2396 73.4688V37.1302L61.8281 60.4844C61.4271 60.8021 60.9688 60.9635 60.4583 60.9635C59.9479 60.9635 59.4896 60.8021 59.0938 60.4844L29.6771 37.1302V73.4688C29.6771 73.724 29.7292 73.9688 29.8229 74.2083C29.9219 74.4427 30.0625 74.651 30.2396 74.8281C30.4219 75.0104 30.6302 75.151 30.8646 75.2448C31.1042 75.3438 31.349 75.3958 31.6042 75.3958H89.3177ZM86.9271 34.9375H33.9896L60.4583 55.9583L86.9271 34.9375Z" fill="white"/>
</g>
</svg>
