<svg width="74" height="73" viewBox="0 0 74 73" fill="none" xmlns="http://www.w3.org/2000/svg">
<path fill-rule="evenodd" clip-rule="evenodd" d="M7.19269 34.7188H44.4062V40.9219H7.19269V34.7188Z" fill="white"/>
<path fill-rule="evenodd" clip-rule="evenodd" d="M15.8542 24.776L5 35.625C3.79167 36.8385 3.79167 38.802 5 40.0104L15.8542 50.8645L20.2396 46.4791L11.5781 37.8177L20.2396 29.1614L15.8542 24.776Z" fill="white"/>
<mask id="mask0_23_2" style="mask-type:luminance" maskUnits="userSpaceOnUse" x="22" y="9" width="44" height="57">
<path d="M22.6667 9.77087H65.7865V65.7709H22.6667V9.77087Z" fill="white"/>
</mask>
<g mask="url(#mask0_23_2)">
<path fill-rule="evenodd" clip-rule="evenodd" d="M22.6979 13.0105C22.6979 11.3021 24.0886 9.9115 25.8021 9.9115H63.0104C64.724 9.9115 66.1146 11.3021 66.1146 13.0105V62.625C66.1146 64.3386 64.724 65.7292 63.0104 65.7292H25.8021C24.0886 65.7292 22.6979 64.3386 22.6979 62.625V53.323H28.9011V59.5261H59.9115V16.1146H28.9011V22.3177H22.6979V13.0105Z" fill="white"/>
</g>
</svg>
