<svg width="92" height="72" viewBox="0 0 92 72" fill="none" xmlns="http://www.w3.org/2000/svg">
<mask id="mask0_38_248" style="mask-type:luminance" maskUnits="userSpaceOnUse" x="0" y="0" width="92" height="64">
<path d="M0 0H92V64H0V0Z" fill="white"/>
</mask>
<g mask="url(#mask0_38_248)">
<path d="M5.05733 0.161324C4.44275 0.150907 3.849 0.260281 3.28129 0.489449C2.70837 0.718614 2.20317 1.05195 1.76567 1.48424C1.32817 1.91653 0.989625 2.41653 0.750041 2.98424C0.515666 3.55195 0.395874 4.14049 0.395874 4.76028C0.395874 5.37487 0.515666 5.96341 0.750041 6.53112C0.989625 7.09882 1.32817 7.59882 1.76567 8.03112C2.20317 8.46341 2.70837 8.79674 3.28129 9.02591C3.849 9.25507 4.44275 9.36445 5.05733 9.35924H87.8386C88.4532 9.36445 89.0469 9.25507 89.6198 9.02591C90.1875 8.79674 90.6928 8.46341 91.1303 8.03112C91.573 7.59882 91.9115 7.09882 92.1459 6.53112C92.3855 5.96341 92.5053 5.37487 92.5053 4.76028C92.5053 4.14049 92.3855 3.55195 92.1459 2.98424C91.9115 2.41653 91.573 1.91653 91.1303 1.48424C90.6928 1.05195 90.1875 0.718614 89.6198 0.489449C89.0469 0.260281 88.4532 0.150907 87.8386 0.161324H5.05733ZM5.05733 27.7551C4.44275 27.7447 3.849 27.854 3.28129 28.0832C2.70837 28.3124 2.20317 28.6457 1.76567 29.078C1.32817 29.5103 0.989625 30.0103 0.750041 30.578C0.515666 31.1457 0.395874 31.7342 0.395874 32.354C0.395874 32.9686 0.515666 33.5572 0.750041 34.1249C0.989625 34.6926 1.32817 35.1926 1.76567 35.6249C2.20317 36.0572 2.70837 36.3905 3.28129 36.6197C3.849 36.8488 4.44275 36.9582 5.05733 36.9478H87.8386C88.4532 36.9582 89.0469 36.8488 89.6198 36.6197C90.1875 36.3905 90.6928 36.0572 91.1303 35.6249C91.573 35.1926 91.9115 34.6926 92.1459 34.1249C92.3855 33.5572 92.5053 32.9686 92.5053 32.354C92.5053 31.7342 92.3855 31.1457 92.1459 30.578C91.9115 30.0103 91.573 29.5103 91.1303 29.078C90.6928 28.6457 90.1875 28.3124 89.6198 28.0832C89.0469 27.854 88.4532 27.7447 87.8386 27.7551H5.05733ZM5.05733 55.3436C4.44275 55.3384 3.849 55.4478 3.28129 55.677C2.70837 55.9061 2.20317 56.2395 1.76567 56.6717C1.32817 57.104 0.989625 57.604 0.750041 58.1717C0.515666 58.7395 0.395874 59.328 0.395874 59.9426C0.395874 60.5624 0.515666 61.1509 0.750041 61.7186C0.989625 62.2863 1.32817 62.7863 1.76567 63.2186C2.20317 63.6509 2.70837 63.9842 3.28129 64.2134C3.849 64.4426 4.44275 64.552 5.05733 64.5415H87.8386C88.4532 64.552 89.0469 64.4426 89.6198 64.2134C90.1875 63.9842 90.6928 63.6509 91.1303 63.2186C91.573 62.7863 91.9115 62.2863 92.1459 61.7186C92.3855 61.1509 92.5053 60.5624 92.5053 59.9426C92.5053 59.328 92.3855 58.7395 92.1459 58.1717C91.9115 57.604 91.573 57.104 91.1303 56.6717C90.6928 56.2395 90.1875 55.9061 89.6198 55.677C89.0469 55.4478 88.4532 55.3384 87.8386 55.3436H5.05733Z" fill="white"/>
</g>
</svg>
