<svg width="100" height="72" viewBox="0 0 100 72" fill="none" xmlns="http://www.w3.org/2000/svg">
<g clip-path="url(#clip0_37_3)">
<mask id="mask0_37_3" style="mask-type:luminance" maskUnits="userSpaceOnUse" x="51" y="14" width="49" height="46">
<path d="M51.3334 14.6667H100V60.0001H51.3334V14.6667Z" fill="white"/>
</mask>
<g mask="url(#mask0_37_3)">
<path fill-rule="evenodd" clip-rule="evenodd" d="M92.9427 36.901C93.6302 36.927 94.0208 37.2447 94.2552 37.7187C94.8177 38.8437 95.6354 41.1353 93.8958 42.2499C92.4688 43.1614 89.3021 44.2083 87.6302 44.8176C86.0156 45.3958 85.401 44.3645 85.6771 42.6093C86.1979 39.3489 88.5208 38.2603 90.7292 37.4062C91.2813 37.1926 91.75 37.052 92.1458 36.9739C92.4479 36.9166 92.7135 36.8905 92.9427 36.901ZM80.7031 15.651C76.5365 15.7395 72.3021 16.5208 68.1615 17.276C64.0104 18.026 59.7188 18.5937 55.8438 20.1353C53.9479 20.8853 52.9479 22.4791 52.3438 24.0676C53.2656 25.7499 53.9635 27.4374 54.6042 29.1301C54.9167 27.7447 55.2865 26.3853 55.7813 25.052C56.0833 24.2395 56.5677 23.3697 57.5677 22.9843C61.4896 21.6093 65.0208 21.0468 68.7188 20.3905C72.5885 19.6926 76.4219 18.8749 80.0781 18.9218C81.151 18.9374 81.9063 19.578 82.474 20.2343C84.5833 22.6822 86.2083 25.427 87.75 28.3749C84.375 29.3437 76.9271 31.4062 70.9063 32.4947C68.0052 33.0155 64.724 33.4374 61.7031 33.7708C62.7135 34.9791 63.1146 36.526 63.1146 37.8124C63.1146 39.7395 62.1458 41.7187 60.7708 43.4739C61.401 45.0468 62.0677 46.6405 62.0677 48.5676V58.5572L90.0156 53.5103L90.7083 57.3176C90.8854 58.3072 91.7292 58.9687 92.599 58.8072L97.0625 57.9999C97.9427 57.8437 98.5 56.9322 98.3229 55.9426L97.5833 51.8853C98.7708 51.0833 99.6094 49.3645 99.2813 47.5624L97.3385 36.7916C97.099 35.4791 96.3594 34.0937 95.4583 32.8228L94.8021 31.927C96.4427 30.526 96.8438 28.8958 96.5469 27.2708C96.3281 26.0572 95.526 25.4739 94.1927 25.7135L90.8281 26.3176C89.2292 23.3853 87.4844 20.5208 85.1927 17.9114C84.0625 16.6301 82.6302 15.6041 80.7031 15.651Z" fill="white"/>
</g>
<mask id="mask1_37_3" style="mask-type:luminance" maskUnits="userSpaceOnUse" x="0" y="20" width="60" height="52">
<path d="M0 20H59.3333V72H0V20Z" fill="white"/>
</mask>
<g mask="url(#mask1_37_3)">
<path fill-rule="evenodd" clip-rule="evenodd" d="M52.3333 47.7292C53.7188 47.7084 54.3021 48.2084 54.526 48.9844C54.9167 50.349 55.375 53.0626 53.2135 53.9532C51.4427 54.6876 47.7031 55.2084 45.7135 55.5469C43.8021 55.8751 43.3281 54.6042 43.9896 52.698C45.2292 49.1771 48.0313 48.4324 50.6615 47.9167C51.3229 47.7969 51.8698 47.7344 52.3333 47.7292ZM6.82292 47.7292C7.28125 47.7344 7.82812 47.7969 8.48958 47.9167C11.1146 48.4324 13.9219 49.1771 15.1615 52.698C15.8177 54.6042 15.3437 55.8751 13.4323 55.5469C11.4427 55.2084 7.71875 54.6876 5.94271 53.9532C3.78125 53.0626 4.22917 50.349 4.63021 48.9844C4.84896 48.2084 5.4375 47.7084 6.82292 47.7292ZM29.5729 24.5469C34.026 24.5469 38.4583 24.4167 42.5208 25.198C43.7135 25.4219 44.4219 26.2917 44.9167 27.1407C46.776 30.2813 48.0365 33.6771 49.1667 37.2709C45.2083 37.6667 36.5 38.4688 29.5729 38.4688C22.6563 38.4688 13.9479 37.6667 9.98958 37.2709C11.1198 33.6771 12.375 30.2813 14.2292 27.1407C14.7292 26.2917 15.4375 25.4219 16.6354 25.198C21.276 24.4532 25.3125 24.5365 29.5729 24.5469ZM29.5781 20.9688C24.8073 20.9688 19.9427 20.948 15.2813 21.6771C13.125 22.0157 11.7292 23.4428 10.7396 25.099C8.70312 28.4636 7.32813 32.0053 6.14063 35.599H2.27083C0.744792 35.5938 -0.03125 36.4115 -0.03125 37.8074C-0.03125 39.6719 0.739584 41.4115 2.85417 42.6407L2.29167 43.7709C1.54687 45.3699 1.01042 47.0574 1.01042 48.5626V60.948C1.01042 63.0209 2.28125 64.7709 3.76042 65.4219V70.0938C3.76042 71.2344 4.5625 72.1407 5.56771 72.1407H10.7083C11.7135 72.1407 12.5208 71.2344 12.5208 70.0938V65.7084H46.6354V70.0938C46.6354 71.2344 47.4427 72.1407 48.4375 72.1407H53.5781C54.5833 72.1407 55.3906 71.2344 55.3906 70.0938V65.4219C56.875 64.7709 58.1458 63.0313 58.1458 60.948V48.5626C58.1458 47.0574 57.6042 45.3699 56.8594 43.7709L56.2969 42.6407C58.4115 41.4115 59.1823 39.6719 59.1823 37.8074C59.1823 36.4115 58.4063 35.5938 56.875 35.599H53.0052C51.8177 32.0105 50.4427 28.4636 48.4167 25.099C47.4167 23.4428 46.026 22.0157 43.8698 21.6771C39.2135 20.948 34.3385 20.9688 29.5781 20.9688Z" fill="white"/>
</g>
<path d="M48.9531 16.2447H46.7344L44.2864 0.067627H51.3385L48.9531 16.2447Z" fill="white"/>
<path d="M44.1302 17.1511L42.8438 18.4324L32.1354 10.5365L36.1979 6.47925L44.1302 17.1511Z" fill="white"/>
<path d="M51.8334 17.3074L52.9532 18.4324L62.375 11.4897L58.8021 7.91675L51.8334 17.3074Z" fill="white"/>
</g>
<defs>
<clipPath id="clip0_37_3">
<rect width="1920" height="1080" fill="white" transform="translate(-978 -504)"/>
</clipPath>
</defs>
</svg>
