<svg width="77" height="72" viewBox="0 0 77 72" fill="none" xmlns="http://www.w3.org/2000/svg">
<g clip-path="url(#clip0_37_3)">
<path d="M50.3542 58.8802C50.6146 58.8802 50.875 58.8438 51.1355 58.7708C52.6355 58.3438 53.5053 56.776 53.073 55.276L48.9896 41.026C48.823 40.4583 48.4844 39.9531 48.0209 39.5833L41.1355 34.1563C41.1459 34.0885 41.1719 34.0313 41.1771 33.9688L42.6875 22.4219L45.7188 26.6979C45.9792 27.0677 46.3438 27.3542 46.7605 27.5208L56.2605 31.3594C57.4584 31.8333 58.8438 31.2656 59.3334 30.0521C59.8178 28.849 59.2344 27.474 58.0261 26.9844L49.1667 23.4115L42.8438 14.4844C42.5782 14.1198 42.2032 13.8802 41.7917 13.7135C45.1042 13.1979 47.6459 10.3646 47.6459 6.90625C47.6459 3.09375 44.5521 0 40.7344 0C36.9167 0 33.8282 3.09375 33.8282 6.90625C33.8282 9.56771 35.3438 11.849 37.5469 13.0052C37.5261 13.0052 37.5105 13.0104 37.4948 13.0104L37.0938 12.9583C36.6511 12.8958 36.198 12.9635 35.7969 13.151L25.2553 17.9896C24.6511 18.2656 24.1875 18.7865 23.9896 19.4167C22.5 24.1042 20.7605 29.3698 20.3698 30.2656C19.7813 31.2865 20.0365 32.6094 21.0053 33.3281C21.4271 33.6458 21.9219 33.7969 22.4115 33.7969C23.1303 33.7969 23.8386 33.4688 24.3021 32.849C24.5625 32.5052 24.9115 32.0313 28.1667 21.8385L33.8282 19.2396L32.0573 32.776C32.0105 33.1198 32.0313 33.4583 32.073 33.7865L28.7396 45.3021L20.474 53.0781C19.3386 54.1458 19.2813 55.9375 20.3542 57.0729C20.9115 57.6667 21.6615 57.9635 22.4167 57.9635C23.1094 57.9635 23.8073 57.7083 24.3542 57.1979L33.1823 48.8906C33.5521 48.5469 33.8178 48.1042 33.9584 47.6198L36.7657 37.9115L43.8021 43.4635L47.6407 56.8333C47.9948 58.0729 49.125 58.8854 50.3542 58.8802Z" fill="white"/>
<mask id="mask0_37_3" style="mask-type:luminance" maskUnits="userSpaceOnUse" x="0" y="60" width="18" height="12">
<path d="M0.213562 60H18V72H0.213562V60Z" fill="white"/>
</mask>
<g mask="url(#mask0_37_3)">
<path d="M9.67706 61.073L0.239563 72.2657H10.1406L17.0885 61.073H9.67706Z" fill="white"/>
</g>
<mask id="mask1_37_3" style="mask-type:luminance" maskUnits="userSpaceOnUse" x="16" y="60" width="14" height="12">
<path d="M16.6667 60H30V72H16.6667V60Z" fill="white"/>
</mask>
<g mask="url(#mask1_37_3)">
<path d="M16.9375 72.2657H26.8438L29.5885 61.073H22.1771L16.9375 72.2657Z" fill="white"/>
</g>
<mask id="mask2_37_3" style="mask-type:luminance" maskUnits="userSpaceOnUse" x="32" y="60" width="13" height="12">
<path d="M32.6667 60H44.6667V72H32.6667V60Z" fill="white"/>
</mask>
<g mask="url(#mask2_37_3)">
<path d="M34.6771 61.073L33.6354 72.2657H43.5417L42.0886 61.073H34.6771Z" fill="white"/>
</g>
<mask id="mask3_37_3" style="mask-type:luminance" maskUnits="userSpaceOnUse" x="46" y="60" width="15" height="12">
<path d="M46 60H60.6667V72H46V60Z" fill="white"/>
</mask>
<g mask="url(#mask3_37_3)">
<path d="M47.1771 61.073L50.3385 72.2657H60.2396L54.5937 61.073H47.1771Z" fill="white"/>
</g>
<mask id="mask4_37_3" style="mask-type:luminance" maskUnits="userSpaceOnUse" x="59" y="60" width="19" height="12">
<path d="M59.3333 60H77.2135V72H59.3333V60Z" fill="white"/>
</mask>
<g mask="url(#mask4_37_3)">
<path d="M67.0938 61.073H59.6823L67.0365 72.2657H76.9375L67.0938 61.073Z" fill="white"/>
</g>
</g>
<defs>
<clipPath id="clip0_37_3">
<rect width="1920" height="1080" fill="white" transform="translate(-778 -504)"/>
</clipPath>
</defs>
</svg>
