<svg width="72" height="72" viewBox="0 0 72 72" fill="none" xmlns="http://www.w3.org/2000/svg">
<g clip-path="url(#clip0_37_3)">
<mask id="mask0_37_3" style="mask-type:luminance" maskUnits="userSpaceOnUse" x="-1" y="0" width="73" height="72">
<path d="M-0.00518799 0H71.9948V72H-0.00518799V0Z" fill="white"/>
</mask>
<g mask="url(#mask0_37_3)">
<path d="M36.125 0C34.9427 0 33.7604 0.0572923 32.5834 0.171875C31.4063 0.291667 30.2396 0.463542 29.0781 0.692708C27.9167 0.927083 26.7709 1.21354 25.6354 1.55729C24.5052 1.90104 23.3906 2.29687 22.2969 2.75C21.2031 3.20313 20.1354 3.70833 19.0938 4.26563C18.0521 4.82292 17.0365 5.43229 16.0521 6.08854C15.0677 6.74479 14.1198 7.45313 13.2031 8.20313C12.2865 8.95313 11.4115 9.74479 10.5781 10.5833C9.7396 11.4219 8.94794 12.2969 8.19273 13.2083C7.44273 14.125 6.7396 15.0729 6.08335 16.0573C5.4271 17.0417 4.81773 18.0573 4.26044 19.099C3.70315 20.1458 3.19794 21.2135 2.74481 22.3073C2.29169 23.401 1.89065 24.5104 1.5469 25.6458C1.20315 26.776 0.916687 27.9219 0.68752 29.0833C0.458354 30.2448 0.281271 31.4115 0.166687 32.5938C0.052103 33.7708 -0.00518799 34.9479 -0.00518799 36.1302C-0.00518799 37.3177 0.052103 38.4948 0.166687 39.6719C0.281271 40.8542 0.458354 42.0208 0.68752 43.1823C0.916687 44.3438 1.20315 45.4896 1.5469 46.6198C1.89065 47.7552 2.29169 48.8646 2.74481 49.9583C3.19794 51.0521 3.70315 52.1198 4.26044 53.1667C4.81773 54.2083 5.4271 55.224 6.08335 56.2083C6.7396 57.1927 7.44273 58.1406 8.19273 59.0573C8.94794 59.9688 9.7396 60.8438 10.5781 61.6823C11.4115 62.5208 12.2865 63.3125 13.2031 64.0625C14.1198 64.8125 15.0677 65.5208 16.0521 66.1771C17.0365 66.8333 18.0521 67.4427 19.0938 68C20.1354 68.5573 21.2031 69.0625 22.2969 69.5156C23.3906 69.9688 24.5052 70.3646 25.6354 70.7083C26.7709 71.0521 27.9167 71.3385 29.0781 71.5729C30.2396 71.8021 31.4063 71.974 32.5834 72.0938C33.7604 72.2083 34.9427 72.2656 36.125 72.2656C37.3073 72.2656 38.4896 72.2083 39.6667 72.0938C40.8438 71.974 42.0156 71.8021 43.1771 71.5729C44.3386 71.3385 45.4844 71.0521 46.6146 70.7083C47.7448 70.3646 48.8594 69.9688 49.9531 69.5156C51.0469 69.0625 52.1146 68.5573 53.1615 68C54.2031 67.4427 55.2188 66.8333 56.1979 66.1771C57.1823 65.5208 58.1354 64.8125 59.0469 64.0625C59.9636 63.3125 60.8386 62.5208 61.6771 61.6823C62.5104 60.8438 63.3073 59.9688 64.0573 59.0573C64.8073 58.1406 65.5104 57.1927 66.1719 56.2083C66.8281 55.224 67.4323 54.2083 67.9948 53.1667C68.5521 52.1198 69.0573 51.0521 69.5104 49.9583C69.9636 48.8646 70.3594 47.7552 70.7031 46.6198C71.0469 45.4896 71.3334 44.3438 71.5625 43.1823C71.7969 42.0208 71.9688 40.8542 72.0834 39.6719C72.2031 38.4948 72.2604 37.3177 72.2604 36.1302C72.2604 34.9479 72.2031 33.7708 72.0834 32.5938C71.9688 31.4115 71.7969 30.2448 71.5625 29.0833C71.3334 27.9219 71.0469 26.776 70.7031 25.6458C70.3594 24.5104 69.9584 23.401 69.5052 22.3073C69.0521 21.2135 68.5469 20.1458 67.9896 19.099C67.4323 18.0573 66.8229 17.0417 66.1667 16.0573C65.5104 15.0781 64.8073 14.125 64.0573 13.2135C63.3073 12.2969 62.5104 11.4219 61.6771 10.5833C60.8386 9.75 59.9636 8.95313 59.0469 8.20313C58.1302 7.45313 57.1823 6.75 56.1979 6.08854C55.2136 5.43229 54.2031 4.82813 53.1563 4.26563C52.1146 3.70833 51.0469 3.20313 49.9531 2.75C48.8594 2.29687 47.7448 1.90104 46.6146 1.55729C45.4844 1.21354 44.3334 0.927083 43.1771 0.692708C42.0156 0.463542 40.8438 0.291667 39.6667 0.171875C38.4896 0.0572923 37.3073 0 36.125 0ZM36.125 13.5521C36.5521 13.5521 36.9792 13.5729 37.4063 13.625C37.8281 13.6719 38.25 13.7448 38.6667 13.8438C39.0834 13.9427 39.4948 14.0625 39.8959 14.2083C40.2969 14.3542 40.6927 14.5208 41.0729 14.7135C41.4584 14.9063 41.8281 15.1146 42.1875 15.349C42.5469 15.5833 42.8906 15.8385 43.2188 16.1094C43.5469 16.3854 43.8594 16.6771 44.1563 16.9844C44.4479 17.2969 44.724 17.6198 44.9844 17.9635C45.2396 18.3073 45.4792 18.6615 45.6927 19.0313C45.9115 19.401 46.1042 19.7813 46.2761 20.1719C46.4479 20.5625 46.599 20.9635 46.724 21.3698C46.849 21.7813 46.9531 22.1979 47.0313 22.6146C47.1094 23.0365 47.1615 23.4583 47.1875 23.8854C47.2188 24.3125 47.224 24.7396 47.2031 25.1667C47.1823 25.599 47.1354 26.0208 47.0677 26.4427C46.9948 26.8646 46.9011 27.2813 46.7813 27.6927C46.6667 28.1042 46.5261 28.5052 46.3594 28.901C46.1927 29.2969 46.0052 29.6823 45.7969 30.0521C45.5886 30.4271 45.3594 30.7865 45.1094 31.1354C44.8542 31.4792 44.5834 31.8125 44.2969 32.125C44.0052 32.4427 43.6979 32.7396 43.375 33.0208C43.0521 33.2969 42.7136 33.5573 42.3594 33.7969C42.0052 34.0417 41.6406 34.2604 41.2604 34.4583C40.8802 34.6563 40.4896 34.8281 40.0938 34.9844C39.6927 35.1354 39.2865 35.2656 38.8698 35.3698C38.4584 35.4792 38.0365 35.5573 37.6146 35.6146C37.1875 35.6719 36.7604 35.7031 36.3334 35.7135C35.9063 35.7188 35.4792 35.7031 35.0521 35.6615C34.6302 35.6198 34.2084 35.5573 33.7865 35.4635C33.3698 35.375 32.9584 35.2604 32.5521 35.1198C32.1459 34.9844 31.7552 34.8229 31.3646 34.6406C30.9792 34.4531 30.6042 34.25 30.2448 34.0208C20.9375 28.125 24.9688 13.6615 36.125 13.5521ZM49.125 58.7135H23.1302C22.5938 58.7135 22.0573 58.6615 21.5313 58.5573C21.0052 58.4479 20.4948 58.2917 19.9948 58.0885C19.5 57.8802 19.0261 57.6302 18.5834 57.3281C18.1354 57.0313 17.724 56.6875 17.3438 56.3073C16.9636 55.9271 16.6198 55.5156 16.3229 55.0677C16.0261 54.6198 15.7709 54.151 15.5677 53.651C15.3594 53.1563 15.2084 52.6406 15.099 52.1146C14.9948 51.5885 14.9427 51.0573 14.9427 50.5156C14.9427 43.5729 20.0573 37.5781 27.3959 34.8802C28.0052 35.3906 28.6459 35.849 29.3334 36.2448C30.0209 36.6458 30.7344 36.9792 31.4792 37.25C32.224 37.526 32.9844 37.7292 33.7656 37.8698C34.5469 38.0052 35.3334 38.0781 36.125 38.0781C36.9167 38.0781 37.7031 38.0052 38.4844 37.8698C39.2656 37.7292 40.0313 37.526 40.7761 37.25C41.5209 36.9792 42.2344 36.6458 42.9167 36.2448C43.6042 35.849 44.25 35.3906 44.8542 34.8802C52.1927 37.5781 57.3073 43.5729 57.3073 50.5156C57.3073 51.0573 57.2552 51.5885 57.1511 52.1146C57.0469 52.6406 56.8906 53.1563 56.6875 53.651C56.4792 54.151 56.2292 54.6198 55.9271 55.0677C55.6302 55.5156 55.2917 55.9271 54.9115 56.3073C54.5313 56.6875 54.1198 57.0313 53.6719 57.3281C53.224 57.6302 52.75 57.8802 52.2552 58.0885C51.7604 58.2917 51.2448 58.4479 50.7188 58.5573C50.1927 58.6615 49.6615 58.7135 49.125 58.7135Z" fill="white"/>
</g>
</g>
<defs>
<clipPath id="clip0_37_3">
<rect width="1920" height="1080" fill="white" transform="translate(-879 -504)"/>
</clipPath>
</defs>
</svg>
