<svg width="65" height="73" viewBox="0 0 65 73" fill="none" xmlns="http://www.w3.org/2000/svg">
<g clip-path="url(#clip0_37_3)">
<path d="M31.8802 7.78638C27.5521 7.78638 24.0312 11.3124 24.0312 15.6405C24.0312 19.9687 27.5521 23.4947 31.8802 23.4947C36.2135 23.4947 39.7344 19.9687 39.7344 15.6405C39.7344 11.3124 36.2135 7.78638 31.8802 7.78638Z" fill="white"/>
<path d="M31.8802 28.4426C27.5521 28.4426 24.0312 31.9635 24.0312 36.2864C24.0312 40.6145 27.5521 44.1353 31.8802 44.1353C36.2135 44.1353 39.7344 40.6145 39.7344 36.2864C39.7344 31.9635 36.2135 28.4426 31.8802 28.4426Z" fill="white"/>
<path d="M31.8802 49.0833C27.5521 49.0833 24.0312 52.6093 24.0312 56.9374C24.0312 61.2655 27.5521 64.7916 31.8802 64.7916C36.2135 64.7916 39.7344 61.2655 39.7344 56.9374C39.7344 52.6093 36.2135 49.0833 31.8802 49.0833Z" fill="white"/>
<mask id="mask0_37_3" style="mask-type:luminance" maskUnits="userSpaceOnUse" x="-1" y="0" width="66" height="72">
<path d="M-0.322876 0H64.6667V72H-0.322876V0Z" fill="white"/>
</mask>
<g mask="url(#mask0_37_3)">
<path d="M62.4271 49.651H50.9375V43.5729H55.073C55.6094 43.5729 56.1094 43.3021 56.4011 42.849L63.7553 31.4375C64.0625 30.9479 64.0886 30.3333 63.8125 29.8281C63.5365 29.3177 63.0053 29.0052 62.4271 29.0052H50.9375V22.9271H55.073C55.6094 22.9271 56.1094 22.6563 56.4011 22.2031L63.7553 10.7813C64.0678 10.2969 64.0886 9.68229 63.8125 9.17188C63.5365 8.66667 63.0053 8.35417 62.4271 8.35417H50.9375V4.35938C50.9375 1.96354 48.9896 0.015625 46.599 0.015625H17.1667C14.7709 0.015625 12.8282 1.96354 12.8282 4.35938V8.35417H1.33337C0.760452 8.35417 0.229202 8.66667 -0.0468389 9.17188C-0.322882 9.68229 -0.302046 10.2969 0.0104528 10.7813L7.35941 22.2031C7.65108 22.6563 8.15108 22.9271 8.68754 22.9271H12.8282V29.0052H1.33337C0.760452 29.0052 0.229202 29.3177 -0.0468389 29.8281C-0.322882 30.3333 -0.302046 30.9479 0.0104528 31.4375L7.35941 42.849C7.65108 43.3021 8.15108 43.5729 8.68754 43.5729H12.8282V49.651H1.33337C0.760452 49.651 0.229202 49.9635 -0.0468389 50.4688C-0.322882 50.9792 -0.302046 51.5938 0.0104528 52.0781L7.35941 63.5C7.65108 63.9531 8.15108 64.224 8.68754 64.224H12.8282V68.2188C12.8282 70.6146 14.7709 72.5625 17.1667 72.5625H46.599C48.9896 72.5625 50.9375 70.6146 50.9375 68.2188V64.224H55.073C55.6094 64.224 56.1094 63.9531 56.4011 63.5L63.7553 52.0781C64.0678 51.5938 64.0886 50.9792 63.8125 50.4688C63.5365 49.9635 63.0053 49.651 62.4271 49.651ZM54.2136 40.4219H50.9375V32.1563H59.5365L54.2136 40.4219ZM54.2136 19.776H50.9375V11.5052H59.5365L54.2136 19.776ZM4.224 11.5052H12.8282V19.776H9.54691L4.224 11.5052ZM4.2292 32.1563H12.8282V40.4219H9.54691L4.2292 32.1563ZM4.224 52.8021H12.8282V61.0729H9.54691L4.224 52.8021ZM47.7813 68.2188C47.7813 68.875 47.25 69.4063 46.599 69.4063H17.1667C16.5209 69.4063 15.9792 68.8646 15.9792 68.2188C15.9792 44.9531 15.9792 25.6354 15.9792 4.35938C15.9792 3.71354 16.5209 3.17188 17.1667 3.17188H46.599C47.25 3.17188 47.7813 3.70313 47.7813 4.35938C47.7813 17.3646 47.7813 50.5938 47.7813 62.651V68.2188ZM54.2136 61.0729H50.9375V52.8021H59.5365L54.2136 61.0729Z" fill="white"/>
</g>
</g>
<defs>
<clipPath id="clip0_37_3">
<rect width="1920" height="1080" fill="white" transform="translate(-1102 -504)"/>
</clipPath>
</defs>
</svg>
