<svg width="53" height="73" viewBox="0 0 53 73" fill="none" xmlns="http://www.w3.org/2000/svg">
<g clip-path="url(#clip0_37_3)">
<mask id="mask0_37_3" style="mask-type:luminance" maskUnits="userSpaceOnUse" x="0" y="0" width="54" height="72">
<path d="M0.088501 0H53.0885V72H0.088501V0Z" fill="white"/>
</mask>
<g mask="url(#mask0_37_3)">
<path d="M52.0208 13.0053C52.0052 12.9897 39.4948 0.411541 39.5104 0.427165C39.2448 0.161541 38.8802 0.010498 38.5 0.010498H5.776C2.64059 0.010498 0.088501 2.56258 0.088501 5.698V66.8803C0.088501 70.0157 2.64059 72.5678 5.776 72.5678H47.0364C50.177 72.5678 52.7291 70.0157 52.7291 66.8803C52.7291 66.0053 52.7291 14.3751 52.7291 14.2709C52.7395 13.724 52.4479 13.2553 52.0208 13.0053ZM39.9218 4.88029L47.8125 12.8126H39.9218V4.88029ZM47.0364 69.724H5.776C4.20829 69.724 2.93225 68.448 2.93225 66.8803V5.698C2.93225 4.13029 4.20829 2.85425 5.776 2.85425H37.0781V14.2345C37.0781 15.0209 37.7135 15.6615 38.5 15.6615H49.8854V66.8803C49.8854 68.448 48.6041 69.724 47.0364 69.724Z" fill="white"/>
</g>
<path d="M15.7343 38.4218C21.2291 38.4218 25.6979 33.953 25.6979 28.4635C25.6979 22.9739 21.2291 18.5051 15.7343 18.5051C10.2448 18.5051 5.776 22.9739 5.776 28.4635C5.776 33.953 10.2448 38.4218 15.7343 38.4218ZM22.7083 27.0416H17.1614V21.4947C19.9427 22.0624 22.1406 24.2603 22.7083 27.0416ZM14.3125 21.4947V28.4635C14.3125 29.2499 14.9531 29.8853 15.7343 29.8853H22.7083C22.0468 33.1301 19.1718 35.578 15.7343 35.578C11.8125 35.578 8.62496 32.3853 8.62496 28.4635C8.62496 25.026 11.0729 22.1562 14.3125 21.4947Z" fill="white"/>
<path d="M45.6145 64.0312H42.7708V51.2291C42.7708 50.4426 42.1302 49.8072 41.3489 49.8072H35.6562C34.8698 49.8072 34.2343 50.4426 34.2343 51.2291V64.0312H31.3854V44.1145C31.3854 43.328 30.75 42.6926 29.9635 42.6926H24.2708C23.4895 42.6926 22.8489 43.328 22.8489 44.1145V64.0312H20.0052V51.2291C20.0052 50.4426 19.3698 49.8072 18.5833 49.8072H12.8906C12.1041 49.8072 11.4687 50.4426 11.4687 51.2291V64.0312H8.62496V44.1145C8.62496 43.328 7.98433 42.6926 7.19788 42.6926C6.41663 42.6926 5.776 43.328 5.776 44.1145V65.453C5.776 66.2395 6.41663 66.8801 7.19788 66.8801C16.3073 66.8801 38.0573 66.8801 45.6145 66.8801C46.401 66.8801 47.0364 66.2395 47.0364 65.453C47.0364 64.6718 46.401 64.0312 45.6145 64.0312ZM14.3125 64.0312V52.651H17.1614V64.0312H14.3125ZM25.6979 64.0312V45.5364H28.5416V64.0312H25.6979ZM37.0781 64.0312V52.651H39.9218V64.0312H37.0781Z" fill="white"/>
<path d="M7.19788 15.6615H32.8073C33.5937 15.6615 34.2343 15.0209 34.2343 14.2345V7.12508C34.2343 6.33862 33.5937 5.698 32.8073 5.698H7.19788C6.41663 5.698 5.776 6.33862 5.776 7.12508V14.2345C5.776 15.0209 6.41663 15.6615 7.19788 15.6615ZM8.62496 8.54696H31.3854V12.8126H8.62496V8.54696Z" fill="white"/>
<path d="M45.6145 18.5051H32.8073C32.026 18.5051 31.3854 19.1405 31.3854 19.927C31.3854 20.7135 32.026 21.3489 32.8073 21.3489H45.6145C46.401 21.3489 47.0364 20.7135 47.0364 19.927C47.0364 19.1405 46.401 18.5051 45.6145 18.5051Z" fill="white"/>
<path d="M45.6145 24.198H32.8073C32.026 24.198 31.3854 24.8334 31.3854 25.6199C31.3854 26.4063 32.026 27.0417 32.8073 27.0417H45.6145C46.401 27.0417 47.0364 26.4063 47.0364 25.6199C47.0364 24.8334 46.401 24.198 45.6145 24.198Z" fill="white"/>
<path d="M45.6145 29.8855H32.8073C32.026 29.8855 31.3854 30.5261 31.3854 31.3074C31.3854 32.0938 32.026 32.7345 32.8073 32.7345H45.6145C46.401 32.7345 47.0364 32.0938 47.0364 31.3074C47.0364 30.5261 46.401 29.8855 45.6145 29.8855Z" fill="white"/>
<path d="M45.6145 35.5781H32.8073C32.026 35.5781 31.3854 36.2135 31.3854 37C31.3854 37.7865 32.026 38.4219 32.8073 38.4219H45.6145C46.401 38.4219 47.0364 37.7865 47.0364 37C47.0364 36.2135 46.401 35.5781 45.6145 35.5781Z" fill="white"/>
</g>
<defs>
<clipPath id="clip0_37_3">
<rect width="1920" height="1080" fill="white" transform="translate(-1193 -504)"/>
</clipPath>
</defs>
</svg>
