<svg width="71" height="57" viewBox="0 0 71 57" fill="none" xmlns="http://www.w3.org/2000/svg">
<mask id="mask0_37_166" style="mask-type:luminance" maskUnits="userSpaceOnUse" x="-1" y="-1" width="73" height="58">
<path d="M-0.25 -0.447998H71.3333V56.552H-0.25V-0.447998Z" fill="white"/>
</mask>
<g mask="url(#mask0_37_166)">
<path d="M71.0417 25.7708L70.2032 23.4115C69.7449 22.1198 68.3021 21.0521 67.0053 21.0521H64.0417C61.8334 14.8906 59.1719 7.4375 58.3334 5.6875C57.1146 2.94792 53.2344 1.72917 51.1042 1.11979C51.1042 1.11979 47.5313 -0.25 35.5834 -0.25C23.6407 -0.25 20.1407 1.11979 20.1407 1.11979C17.6303 1.95833 14.1303 3.17188 12.7605 5.76042C12.073 7.05208 9.3334 14.6615 7.13027 21.0521H4.23965C2.94277 21.0521 1.50006 22.1198 1.04173 23.4115L0.203187 25.7708C-0.249938 27.0625 0.432354 28.1302 1.72923 28.1302H4.69277C4.31256 29.1979 4.0834 29.8021 4.0834 29.8021C3.85944 30.1823 3.70319 31.9323 3.70319 32.4688V54C3.70319 55.3698 4.84381 56.5104 6.2136 56.5104H15.3438C16.7136 56.5104 17.8542 55.3698 17.8542 54V49.4323H53.3907V54C53.3907 55.3698 54.5313 56.5104 55.9011 56.5104H65.1042C66.474 56.5104 67.6146 55.3698 67.6146 54V32.4688C67.6146 32.0104 67.4636 30.1823 67.2344 29.8021C67.2344 29.8021 67.0053 29.1979 66.6251 28.1302H69.5209C70.7344 28.1302 71.4219 27.0625 71.0417 25.7708ZM17.8542 39.0104L14.8126 36.9583C9.18235 36.5 8.50006 38.4792 7.28131 36.349V33.7604C7.28131 31.25 8.72923 31.1719 10.323 31.1719C11.8438 31.1719 14.8907 32.4688 16.9428 33.3802C19.1511 34.3698 20.7501 33.5313 21.5834 36.8021C21.5105 38.3281 20.6719 39.0104 17.8542 39.0104ZM12.5313 22.0417C14.4324 14.2813 17.6303 8.88021 18.0834 7.58854C18.3907 6.67188 17.6303 5 35.6615 5C53.6928 5 52.7032 7.4375 52.7813 7.51042C53.6146 9.26042 56.9636 14.9687 58.7136 22.0417C58.7136 22.0417 51.9428 22.9583 36.5001 22.9583C21.0521 22.9583 12.5313 22.0417 12.5313 22.0417ZM49.7344 36.8021C53.3126 32.3906 52.1719 34.3698 54.3751 33.3802C56.3542 32.4688 59.474 31.1719 60.9949 31.1719C62.5938 31.1719 64.0417 31.25 64.0417 33.7604V36.349C62.9011 38.401 61.9115 36.5781 56.2032 37.1094L53.3907 38.9323C50.573 39.0104 48.7449 37.9427 49.7344 36.8021Z" fill="white"/>
</g>
</svg>
