<svg width="80" height="72" viewBox="0 0 80 72" fill="none" xmlns="http://www.w3.org/2000/svg">
<g clip-path="url(#clip0_37_3)">
<mask id="mask0_37_3" style="mask-type:luminance" maskUnits="userSpaceOnUse" x="0" y="0" width="41" height="52">
<path d="M0 0H40.6667V52H0V0Z" fill="white"/>
</mask>
<g mask="url(#mask0_37_3)">
<path d="M3.44792 48.401C2.94271 47.8958 2.69271 47.1406 2.77604 46.3854C3.10938 42.349 4.03646 38.401 5.46354 34.6198C7.3125 29.7448 11.599 26.2188 16.6406 25.125C18.4063 26.0469 20.5052 26.5521 22.6042 26.5521C24.7917 26.5521 26.8073 26.0469 28.5729 25.125C32.2708 25.8802 35.5469 27.9844 37.7292 31.0052L39.5781 29.1563C37.4792 26.4687 34.6198 24.3698 31.3438 23.1927C34.1198 20.7552 35.7969 17.224 35.7969 13.276C35.9688 5.96354 30 0 22.6875 0C15.3802 0 9.41146 5.96354 9.41146 13.276C9.41146 17.224 11.1771 20.7552 13.8646 23.1927C8.99479 24.9583 4.95834 28.7396 3.10938 33.6979C1.59896 37.7292 0.588543 41.9323 0.171876 46.2188C1.76662e-06 47.6458 0.505209 49.1563 1.51563 50.1667C2.52083 51.2604 3.86459 51.849 5.29688 51.849H30.6719V49.2396H5.29688C4.625 49.2396 3.95313 48.9896 3.44792 48.401ZM12.0156 13.276C12.0156 7.39583 16.8073 2.60417 22.6875 2.60417C28.5729 2.60417 33.3594 7.39583 33.3594 13.276C33.3594 19.1563 28.5729 23.9479 22.6875 23.9479C16.8073 23.9479 12.0156 19.1563 12.0156 13.276Z" fill="white"/>
</g>
<path d="M56.6354 39.1562C51.2604 39.1562 46.8906 43.526 46.8906 48.9063C46.8906 54.2813 51.2604 58.651 56.6354 58.651C62.0156 58.651 66.3854 54.2813 66.3854 48.9063C66.4688 43.526 62.099 39.1562 56.6354 39.1562ZM56.6354 56.1302C52.6875 56.1302 49.4115 52.9375 49.4115 48.9063C49.4115 44.8698 52.6042 41.6771 56.6354 41.6771C60.5885 41.6771 63.7813 44.8698 63.7813 48.9063C63.7813 52.9375 60.5885 56.1302 56.6354 56.1302Z" fill="white"/>
<mask id="mask1_37_3" style="mask-type:luminance" maskUnits="userSpaceOnUse" x="32" y="25" width="48" height="47">
<path d="M32.6667 25.3333H80V71.9999H32.6667V25.3333Z" fill="white"/>
</mask>
<g mask="url(#mask1_37_3)">
<path d="M78.8229 43.526L74.3698 43.0208C74.1146 42.1823 73.7813 41.3437 73.3594 40.5L76.1302 37.0573C76.5521 36.5521 76.4688 35.7969 76.0469 35.2917L70.25 29.4948C69.7448 28.9896 69.0729 28.9896 68.4844 29.4115L65.0417 32.1823C64.2865 31.7656 63.4427 31.4271 62.5209 31.1771L62.0156 26.724C61.9323 26.0469 61.4271 25.5469 60.7552 25.5469H52.5209C51.849 25.5469 51.2604 26.0469 51.2604 26.724L50.7552 31.1771C49.9167 31.4271 49.0729 31.7656 48.2344 32.1823L44.7917 29.4115C44.2865 28.9896 43.5313 29.0729 43.0261 29.4948L37.2292 35.2917C36.724 35.7969 36.724 36.4687 37.1406 37.0573L39.9167 40.5C39.4948 41.2604 39.1615 42.099 38.9063 43.0208L34.4531 43.526C33.7813 43.6094 33.2761 44.1146 33.2761 44.7865V53.0208C33.2761 53.6927 33.7813 54.2813 34.4531 54.2813L38.9063 54.7865C39.1615 55.6302 39.4948 56.4687 39.9167 57.3073L37.1406 60.7552C36.724 61.2552 36.8073 62.0156 37.2292 62.5156L43.0261 68.3177C43.5313 68.8229 44.2031 68.8229 44.7917 68.401L48.2344 65.625C48.9896 66.0469 49.8334 66.3854 50.7552 66.6354L51.2604 71.0885C51.3438 71.7604 51.849 72.2656 52.5209 72.2656H60.7552C61.4271 72.2656 62.0156 71.7604 62.0156 71.0885L62.5209 66.6354C63.3594 66.3854 64.2031 66.0469 65.0417 65.625L68.4844 68.401C68.9896 68.8229 69.7448 68.7344 70.25 68.3177L76.0469 62.5156C76.5521 62.0156 76.5521 61.3438 76.1302 60.7552L73.3594 57.3073C73.7813 56.5521 74.1146 55.7135 74.3698 54.7865L78.8229 54.2813C79.4948 54.1979 80 53.6927 80 53.0208V44.7865C80 44.1146 79.4948 43.526 78.8229 43.526ZM77.3959 51.849L73.2761 52.2656C72.7709 52.349 72.2656 52.6875 72.1823 53.1927C71.849 54.4531 71.3438 55.6302 70.7552 56.7188C70.5052 57.224 70.5052 57.7292 70.8386 58.151L73.4427 61.4271L69.2448 65.625L65.9636 63.0208C65.5469 62.6875 64.9584 62.6875 64.5365 62.9375C63.4427 63.526 62.2656 64.0313 61.0052 64.3646C60.5052 64.5365 60.0834 64.9531 60.0834 65.4583L59.6615 69.5781H53.7813L53.2761 65.5417C53.1927 65.0417 52.8542 64.5365 52.3542 64.4531C51.0938 64.1146 49.9167 63.6094 48.8229 63.0208C48.3177 62.7708 47.8125 62.7708 47.3959 63.1042L44.2031 65.7135L40 61.5104L42.6042 58.3177C42.9427 57.8958 43.0261 57.3073 42.6875 56.8906C42.099 55.7969 41.599 54.6198 41.2604 53.3594C41.0938 52.8542 40.6719 52.4323 40.1667 52.4323L36.0521 52.0156V46.1302L40.1667 45.7135C40.6719 45.6302 41.1771 45.2917 41.2604 44.7865C41.599 43.526 42.099 42.349 42.6875 41.2604C42.9427 40.7552 42.9427 40.25 42.6042 39.8281L40 36.6354L44.2031 32.4375L47.4792 35.0417C47.9011 35.375 48.4896 35.4583 48.9063 35.125C50 34.5365 51.1771 34.0313 52.4375 33.6979C52.9427 33.526 53.3594 33.1094 53.3594 32.6042L53.7813 28.4844H59.6615L60.0834 32.6042C60.1667 33.1094 60.5052 33.6094 61.0052 33.6979C62.2656 34.0313 63.4427 34.5365 64.5365 35.125C64.9584 35.375 65.5469 35.375 65.9636 35.0417L69.2448 32.4375L73.4427 36.6354L70.8386 39.8281C70.5052 40.25 70.4167 40.8385 70.7552 41.2604C71.3438 42.349 71.849 43.526 72.1823 44.7865C72.349 45.2917 72.7709 45.7135 73.2761 45.7135L77.3959 46.1302V51.849Z" fill="white"/>
</g>
</g>
<defs>
<clipPath id="clip0_37_3">
<rect width="1920" height="1080" fill="white" transform="translate(-674 -504)"/>
</clipPath>
</defs>
</svg>
